<svg width="147" height="121" viewBox="0 0 147 121" fill="none" xmlns="http://www.w3.org/2000/svg">
<g filter="url(#filter0_d)">
<path fill-rule="evenodd" clip-rule="evenodd" d="M49.2606 90.1529C44.192 85.1541 40.6265 79.19 38.5641 72.881C36.0035 65.0482 36.5446 59.5892 38.3194 47.5765C40.3119 40.9573 43.9473 34.7518 49.2257 29.5117C66.2493 12.7569 93.7248 12.7913 110.748 29.5117L122.913 41.5089L122.983 41.5089L141.999 60.2977L128.331 73.8119L111.238 90.6701C94.2841 107.39 66.7387 107.39 49.75 90.6701C49.5752 90.4977 49.4704 90.3253 49.2956 90.1529L49.2606 90.1529Z" fill="#1F292F"/>
</g>
<rect y="16.9585" width="79.9407" height="86.2518" fill="#1F292F"/>
<circle cx="79.9423" cy="60.3436" r="31.5556" fill="#34424A"/>
<rect y="28.7881" width="79.9407" height="63.1111" fill="#34424A"/>
<path d="M59.187 52.4877H58.451L58.051 54.3837C57.859 54.0877 57.467 54.0157 57.139 54.0157C55.587 54.0157 54.835 55.6557 54.835 57.0397C54.835 57.7277 55.107 58.4877 55.907 58.4877C56.555 58.4877 57.083 57.9197 57.459 57.4557L57.411 57.6397C57.315 58.1277 57.427 58.4317 57.907 58.4317C58.083 58.4317 58.267 58.3997 58.379 58.3517L58.419 57.8237C58.371 57.8397 58.307 57.8557 58.259 57.8557C58.067 57.8557 58.075 57.6957 58.107 57.5597L59.187 52.4877ZM57.875 55.2317L57.603 56.4797C57.571 56.6157 57.507 56.7357 57.419 56.8557C57.155 57.2237 56.659 57.7917 56.187 57.7917C55.747 57.7917 55.595 57.3917 55.595 56.8797C55.595 55.9917 55.987 54.5837 57.155 54.5837C57.547 54.5837 57.979 54.7677 57.875 55.2317ZM63.4057 54.1357H62.6857L62.1817 56.4877C62.1497 56.6077 62.1017 56.7277 62.0137 56.8557C61.7417 57.2717 61.2217 57.7917 60.7657 57.7917C60.4537 57.7917 60.2617 57.6077 60.2617 57.2717C60.2617 57.1277 60.2857 56.9757 60.3177 56.8237L60.8857 54.1357H60.1577L59.5737 56.9357C59.5337 57.1277 59.5017 57.3197 59.5017 57.5197C59.5017 58.1037 59.8377 58.4877 60.4137 58.4877C61.0777 58.4877 61.6297 57.9437 62.0377 57.4557L61.9897 57.6397C61.8937 58.1277 61.9977 58.4317 62.4857 58.4317C62.6617 58.4317 62.8457 58.3997 62.9577 58.3517L62.9977 57.8237C62.9497 57.8397 62.8857 57.8557 62.8297 57.8557C62.6457 57.8557 62.6537 57.6957 62.6857 57.5597L63.4057 54.1357ZM63.4377 52.4477H62.5817L61.5817 53.6877H62.1817L63.4377 52.4477ZM67.4166 54.9437C67.4166 54.3757 67.0406 54.0077 66.5446 54.0077C66.3206 54.0077 66.1846 54.0397 66.0486 54.0957L66.1126 54.6797C66.1606 54.6637 66.2166 54.6557 66.2726 54.6557C66.5606 54.6557 66.7206 54.8797 66.7206 55.1277C66.7206 55.8877 65.8886 56.9997 65.1606 57.7757H65.1526C65.1366 57.5037 65.1206 57.1997 65.0886 56.8237L64.8246 54.1357H64.0806L64.5766 58.3757H65.3686C66.3366 57.4157 67.4166 56.0877 67.4166 54.9437ZM69.7002 52.7437C69.7002 52.5197 69.5242 52.3917 69.3322 52.3917C69.0362 52.3917 68.7962 52.6477 68.7962 52.9597C68.7962 53.1837 68.9722 53.3117 69.1722 53.3117C69.4682 53.3117 69.7002 53.0477 69.7002 52.7437ZM69.3322 54.1357H68.6042L67.8762 57.5597C67.8442 57.6797 67.8122 57.8077 67.8122 57.9357C67.8122 58.3037 68.0922 58.4317 68.4122 58.4317C68.5642 58.4317 68.7322 58.4077 68.8842 58.3517L68.9242 57.8237C68.8682 57.8477 68.8122 57.8557 68.7562 57.8557C68.5722 57.8557 68.5722 57.6877 68.6042 57.5597L69.3322 54.1357ZM74.1948 52.4877H73.4588L73.0588 54.3837C72.8668 54.0877 72.4748 54.0157 72.1468 54.0157C70.5948 54.0157 69.8428 55.6557 69.8428 57.0397C69.8428 57.7277 70.1148 58.4877 70.9148 58.4877C71.5628 58.4877 72.0908 57.9197 72.4668 57.4557L72.4188 57.6397C72.3228 58.1277 72.4348 58.4317 72.9148 58.4317C73.0908 58.4317 73.2748 58.3997 73.3868 58.3517L73.4268 57.8237C73.3788 57.8397 73.3148 57.8557 73.2668 57.8557C73.0748 57.8557 73.0828 57.6957 73.1148 57.5597L74.1948 52.4877ZM72.8828 55.2317L72.6108 56.4797C72.5788 56.6157 72.5148 56.7357 72.4268 56.8557C72.1628 57.2237 71.6668 57.7917 71.1948 57.7917C70.7548 57.7917 70.6028 57.3917 70.6028 56.8797C70.6028 55.9917 70.9948 54.5837 72.1628 54.5837C72.5548 54.5837 72.9868 54.7677 72.8828 55.2317ZM78.3735 54.1357H77.6695L77.6055 54.4077C77.4215 54.1117 77.0535 54.0157 76.7175 54.0157C75.1815 54.0157 74.4215 55.6557 74.4215 57.0397C74.4215 57.7277 74.6935 58.4877 75.4855 58.4877C76.1015 58.4877 76.6375 57.9197 76.9975 57.4557L76.9575 57.6397C76.8535 58.1277 76.9575 58.4317 77.4455 58.4317C77.6215 58.4317 77.8055 58.3997 77.9175 58.3517L77.9575 57.8237C77.9095 57.8397 77.8455 57.8557 77.7975 57.8557C77.6055 57.8557 77.6135 57.6957 77.6455 57.5597L78.3735 54.1357ZM77.4215 55.2317L77.1495 56.4797C77.1175 56.6157 77.0455 56.7437 76.9655 56.8557C76.7095 57.2237 76.1975 57.7917 75.7575 57.7917C75.3415 57.7917 75.1815 57.3917 75.1815 56.8797C75.1815 55.9837 75.5895 54.5837 76.7095 54.5837C77.0935 54.5837 77.5175 54.7757 77.4215 55.2317ZM81.6663 54.3277C81.3703 54.0877 80.9943 53.9997 80.5863 53.9997C79.7143 53.9997 79.1063 54.5437 79.1063 55.3357C79.1063 55.8957 79.5063 56.1997 79.8743 56.4557C80.2903 56.7437 80.5383 56.9277 80.5383 57.2557C80.5383 57.6957 80.1303 57.8877 79.7143 57.8877C79.3623 57.8877 79.0103 57.7677 78.7863 57.5357L78.4903 58.1357C78.8023 58.4157 79.2903 58.5037 79.7303 58.5037C80.4983 58.5037 81.2743 58.0077 81.2743 57.1197C81.2743 56.5037 80.8103 56.1837 80.4023 55.9117C80.1143 55.7117 79.8183 55.5117 79.8183 55.1757C79.8183 54.8637 80.0903 54.5997 80.5703 54.5997C80.8343 54.5997 81.1703 54.6797 81.3783 54.8877L81.6663 54.3277ZM85.4955 53.7357C85.4955 52.9117 84.7995 52.3757 84.0395 52.3757C83.3755 52.3757 82.8635 52.5997 82.4235 53.0877L82.7595 53.6157C83.0315 53.2637 83.3915 53.0237 83.8475 53.0237C84.3435 53.0237 84.7195 53.3117 84.7195 53.8077C84.7195 54.5997 83.8955 55.1437 83.1515 55.6157L82.9435 56.9277H83.4635L83.7515 55.8637C84.5435 55.4077 85.4955 54.7437 85.4955 53.7357ZM83.4715 57.8477C83.4715 57.5917 83.2795 57.4397 83.0395 57.4397C82.7275 57.4397 82.5115 57.6877 82.5115 57.9997C82.5115 58.2557 82.7035 58.4157 82.9435 58.4157C83.2555 58.4157 83.4715 58.1677 83.4715 57.8477ZM58.339 65.4077C58.051 65.1437 57.635 65.0077 57.211 65.0077C55.699 65.0077 54.851 66.4557 54.851 67.8477C54.851 68.8317 55.459 69.5037 56.451 69.5037C56.891 69.5037 57.355 69.3517 57.699 69.0797L57.507 68.5117C57.267 68.7117 56.963 68.8477 56.635 68.8477C55.923 68.8477 55.611 68.3437 55.611 67.6637C55.611 66.7837 56.139 65.6717 57.163 65.6717C57.483 65.6717 57.795 65.7997 57.995 66.0317L58.339 65.4077ZM62.4654 66.5837C62.4654 65.6237 61.9134 64.9917 60.9454 64.9917C59.4174 64.9917 58.5854 66.5597 58.5854 67.9277C58.5854 68.8877 59.1374 69.5197 60.0974 69.5197C61.6334 69.5197 62.4654 67.9517 62.4654 66.5837ZM61.7054 66.6877C61.7054 67.5357 61.2574 68.8797 60.1934 68.8797C59.5854 68.8797 59.3454 68.4157 59.3454 67.8237C59.3454 66.9757 59.7854 65.6317 60.8574 65.6317C61.4574 65.6317 61.7054 66.1037 61.7054 66.6877ZM66.9193 65.9917C66.9193 65.3997 66.5673 65.0157 65.9753 65.0157C65.2793 65.0157 64.6873 65.5597 64.2713 66.0557L64.4793 65.1357H63.7993L62.9033 69.3677H63.6313L64.1353 67.0157C64.1593 66.8957 64.2153 66.7837 64.3113 66.6557C64.6073 66.2317 65.1433 65.7197 65.6233 65.7197C65.9513 65.7197 66.1513 65.9037 66.1513 66.2317C66.1513 66.3757 66.1273 66.5357 66.0953 66.6797L65.5273 69.3677H66.2553L66.8473 66.5677C66.8873 66.3837 66.9193 66.1837 66.9193 65.9917ZM70.3363 65.2157H69.2483L69.4963 64.0317L68.7123 64.3037L68.5203 65.2157H67.8083L67.6803 65.7997H68.4083L67.8803 68.2477C67.8483 68.3757 67.8243 68.5357 67.8243 68.6717C67.8243 69.2637 68.2803 69.5037 68.8003 69.5037C69.0643 69.5037 69.3523 69.4557 69.5763 69.3757V68.7837C69.4483 68.8477 69.2803 68.8797 69.1203 68.8797C68.8243 68.8797 68.5843 68.7357 68.5843 68.4237C68.5843 68.3357 68.6083 68.2317 68.6323 68.1437L69.1283 65.7997H70.2163L70.3363 65.2157ZM74.4126 65.1357H73.7086L73.6446 65.4077C73.4606 65.1117 73.0926 65.0157 72.7566 65.0157C71.2206 65.0157 70.4606 66.6557 70.4606 68.0397C70.4606 68.7277 70.7326 69.4877 71.5246 69.4877C72.1406 69.4877 72.6766 68.9197 73.0366 68.4557L72.9966 68.6397C72.8926 69.1277 72.9966 69.4317 73.4846 69.4317C73.6606 69.4317 73.8446 69.3997 73.9566 69.3517L73.9966 68.8237C73.9486 68.8397 73.8846 68.8557 73.8366 68.8557C73.6446 68.8557 73.6526 68.6957 73.6846 68.5597L74.4126 65.1357ZM73.4606 66.2317L73.1886 67.4797C73.1566 67.6157 73.0846 67.7437 73.0046 67.8557C72.7486 68.2237 72.2366 68.7917 71.7966 68.7917C71.3806 68.7917 71.2206 68.3917 71.2206 67.8797C71.2206 66.9837 71.6286 65.5837 72.7486 65.5837C73.1326 65.5837 73.5566 65.7757 73.4606 66.2317ZM78.4093 65.4077C78.1213 65.1437 77.7053 65.0077 77.2813 65.0077C75.7693 65.0077 74.9213 66.4557 74.9213 67.8477C74.9213 68.8317 75.5293 69.5037 76.5213 69.5037C76.9613 69.5037 77.4253 69.3517 77.7693 69.0797L77.5773 68.5117C77.3373 68.7117 77.0333 68.8477 76.7053 68.8477C75.9933 68.8477 75.6813 68.3437 75.6813 67.6637C75.6813 66.7837 76.2093 65.6717 77.2333 65.6717C77.5533 65.6717 77.8653 65.7997 78.0653 66.0317L78.4093 65.4077ZM81.3597 65.2157H80.2717L80.5197 64.0317L79.7357 64.3037L79.5437 65.2157H78.8317L78.7037 65.7997H79.4317L78.9037 68.2477C78.8717 68.3757 78.8477 68.5357 78.8477 68.6717C78.8477 69.2637 79.3037 69.5037 79.8237 69.5037C80.0877 69.5037 80.3757 69.4557 80.5997 69.3757V68.7837C80.4717 68.8477 80.3037 68.8797 80.1437 68.8797C79.8477 68.8797 79.6077 68.7357 79.6077 68.4237C79.6077 68.3357 79.6317 68.2317 79.6557 68.1437L80.1517 65.7997H81.2397L81.3597 65.2157ZM85.004 66.0397C85.004 65.3357 84.412 65.0077 83.788 65.0077C82.308 65.0077 81.476 66.5197 81.476 67.8717C81.476 68.8717 82.116 69.5037 83.092 69.5037C83.604 69.5037 84.148 69.3437 84.548 69.0637L84.364 68.4797C84.06 68.7037 83.676 68.8637 83.292 68.8637C82.572 68.8637 82.22 68.4557 82.22 67.7837C82.22 67.6717 82.236 67.5357 82.26 67.3997C82.484 67.4317 82.74 67.4557 82.98 67.4557C83.884 67.4557 85.004 67.1597 85.004 66.0397ZM84.26 66.1197C84.26 66.7517 83.532 66.9117 83.012 66.9117C82.756 66.9117 82.524 66.8877 82.348 66.8637C82.524 66.2077 82.94 65.5917 83.644 65.5917C83.98 65.5917 84.26 65.7757 84.26 66.1197ZM87.497 66.7677H85.577L85.433 67.5037H87.353L87.497 66.7677ZM91.7552 65.9917C91.7552 65.3997 91.4032 65.0157 90.8112 65.0157C90.1152 65.0157 89.5232 65.5597 89.1072 66.0557L89.3152 65.1357H88.6352L87.7392 69.3677H88.4672L88.9712 67.0157C88.9952 66.8957 89.0512 66.7837 89.1472 66.6557C89.4432 66.2317 89.9792 65.7197 90.4592 65.7197C90.7872 65.7197 90.9872 65.9037 90.9872 66.2317C90.9872 66.3757 90.9632 66.5357 90.9312 66.6797L90.3632 69.3677H91.0912L91.6832 66.5677C91.7232 66.3837 91.7552 66.1837 91.7552 65.9917ZM96.3482 66.5837C96.3482 65.6237 95.7962 64.9917 94.8282 64.9917C93.3002 64.9917 92.4682 66.5597 92.4682 67.9277C92.4682 68.8877 93.0202 69.5197 93.9802 69.5197C95.5162 69.5197 96.3482 67.9517 96.3482 66.5837ZM95.5882 66.6877C95.5882 67.5357 95.1402 68.8797 94.0762 68.8797C93.4682 68.8797 93.2282 68.4157 93.2282 67.8237C93.2282 66.9757 93.6682 65.6317 94.7402 65.6317C95.3402 65.6317 95.5882 66.1037 95.5882 66.6877ZM99.6741 65.3277C99.3781 65.0877 99.0021 64.9997 98.5941 64.9997C97.7221 64.9997 97.1141 65.5437 97.1141 66.3357C97.1141 66.8957 97.5141 67.1997 97.8821 67.4557C98.2981 67.7437 98.5461 67.9277 98.5461 68.2557C98.5461 68.6957 98.1381 68.8877 97.7221 68.8877C97.3701 68.8877 97.0181 68.7677 96.7941 68.5357L96.4981 69.1357C96.8101 69.4157 97.2981 69.5037 97.7381 69.5037C98.5061 69.5037 99.2821 69.0077 99.2821 68.1197C99.2821 67.5037 98.8181 67.1837 98.4101 66.9117C98.1221 66.7117 97.8261 66.5117 97.8261 66.1757C97.8261 65.8637 98.0981 65.5997 98.5781 65.5997C98.8421 65.5997 99.1781 65.6797 99.3861 65.8877L99.6741 65.3277Z" fill="#74828A"/>
<path d="M20.2319 78.7493H46.66V75.1834H20.253C19.4391 75.162 18.47 74.8358 18.47 73.4005C18.47 71.9652 19.4391 71.6389 20.253 71.6175H46.66V46.6562C46.66 44.6896 45.0796 43.0903 43.1362 43.0903H20.2319C18.1071 43.0903 14.9463 44.5149 14.9463 48.4392V73.4005C14.9463 77.3248 18.1071 78.7493 20.2319 78.7493ZM18.47 48.4392C18.47 47.0039 19.4391 46.6776 20.2319 46.6562H43.1362V68.0516H18.47V48.4392Z" fill="#1F292F"/>
<path d="M23.7556 50.2221H39.6125V53.788H23.7556V50.2221Z" fill="#1F292F"/>
<defs>
<filter id="filter0_d" x="31.8141" y="5.9585" width="115.185" height="97.2518" filterUnits="userSpaceOnUse" color-interpolation-filters="sRGB">
<feFlood flood-opacity="0" result="BackgroundImageFix"/>
<feColorMatrix in="SourceAlpha" type="matrix" values="0 0 0 0 0 0 0 0 0 0 0 0 0 0 0 0 0 0 127 0"/>
<feOffset dy="-6"/>
<feGaussianBlur stdDeviation="2.5"/>
<feColorMatrix type="matrix" values="0 0 0 0 0 0 0 0 0 0 0 0 0 0 0 0 0 0 0.1 0"/>
<feBlend mode="normal" in2="BackgroundImageFix" result="effect1_dropShadow"/>
<feBlend mode="normal" in="SourceGraphic" in2="effect1_dropShadow" result="shape"/>
</filter>
</defs>
</svg>
