<svg width="146" height="146" viewBox="0 0 146 146" fill="none" xmlns="http://www.w3.org/2000/svg">
<path d="M68.7226 4.27734C68.7226 1.91625 70.6351 0 73 0C75.3611 0 77.2773 1.91625 77.2773 4.27734V13.1172C77.2773 15.4783 75.3611 17.3945 73 17.3945C70.6351 17.3945 68.7226 15.4783 68.7226 13.1172V4.27734Z" fill="#166337"/>
<path fill-rule="evenodd" clip-rule="evenodd" d="M120.336 46.6021C120.336 39.5264 126.092 33.77 133.168 33.77C140.244 33.77 146 39.5264 146 46.6021V92.2271C146 96.8238 144.479 101.382 141.723 105.059L120.336 133.575V141.723C120.336 144.084 118.42 146 116.059 146H29.9414C27.5803 146 25.6641 144.084 25.6641 141.723V133.575L4.27734 105.059C1.52083 101.382 0 96.8238 0 92.2271V46.6021C0 39.5264 5.75635 33.77 12.8358 33.77C19.9115 33.77 25.6679 39.5264 25.6679 46.6021V68.7226C30.5193 67.004 35.9297 68.3652 39.4048 72.1521L39.4162 72.1635L45.7885 79.0909C48.8796 77.4332 52.3623 76.5435 55.8944 76.5435C59.0425 72.3536 63.6279 69.4678 68.7265 68.4222V60.1679H64.5099C47.8416 60.1679 34.2834 46.7351 34.2834 30.2265C34.2834 27.8654 36.1996 25.9491 38.5607 25.9491H47.4006C58.2783 25.9491 67.8216 31.7815 73.0646 40.4845C78.3077 31.7815 87.8509 25.9491 98.7287 25.9491H107.569C109.93 25.9491 111.846 27.8654 111.846 30.2265C111.846 46.7351 98.2877 60.1679 81.6193 60.1679H77.2811V68.4222C82.3797 69.4678 86.9651 72.3536 90.1132 76.5435C93.6529 76.5435 97.2003 77.4179 100.295 79.0034L106.588 72.1635L106.599 72.1521C110.074 68.3614 115.488 67.004 120.336 68.7226V46.6021ZM102.854 34.5038H98.7249C88.3984 34.5038 79.7563 41.8647 77.7678 51.6132H81.6155C92.0827 51.6132 100.839 44.2524 102.854 34.5038ZM43.2715 34.5038C45.2828 44.2524 54.039 51.6132 64.5061 51.6132H68.3577C66.3692 41.8647 57.727 34.5038 47.4006 34.5038H43.2715ZM34.2188 137.445H68.7227C68.7227 134.263 68.7227 124.727 68.7265 121.674C68.7265 118.469 67.5364 115.397 65.3768 113.028L33.1199 77.9616L33.1123 77.954C33.1085 77.9502 33.1047 77.9502 33.1047 77.9464C30.4927 75.0797 25.6641 76.9085 25.6641 80.8246C25.6641 81.9576 26.1013 83.026 26.8997 83.8321L26.946 83.8787C27.1538 84.0897 27.3294 84.3323 31.9425 90.7054C34.3968 94.0961 38.1072 99.2221 43.7468 107.002C45.1345 108.914 44.7049 111.591 42.7924 112.975C40.88 114.363 38.2033 113.933 36.8194 112.021L20.5541 89.5656C18.3298 87.1817 17.1094 84.0944 17.1094 80.8208V46.6021C17.1094 44.2448 15.1893 42.3247 12.832 42.3247C10.4747 42.3247 8.55469 44.2448 8.55469 46.6021V92.2271C8.55469 94.9836 9.46719 97.7211 11.1211 99.9263L33.3633 129.583C33.9184 130.324 34.2188 131.225 34.2188 132.149V137.445ZM71.6845 107.245C72.1521 107.759 72.5894 108.291 73 108.838C73.4068 108.295 73.8403 107.766 74.3079 107.257L94.132 85.7065C92.8317 85.3111 91.4629 85.0982 90.1132 85.0982C89.5581 85.0982 88.9992 85.1362 88.4517 85.2046C86.7293 85.4251 85.0374 84.5849 84.1819 83.0678C81.9045 79.0414 77.6195 76.5435 73.0038 76.5435C68.3881 76.5435 64.1031 79.0452 61.8257 83.0678C60.9664 84.5811 59.2821 85.4289 57.5559 85.2046C57.0084 85.1324 56.4495 85.0982 55.8944 85.0982C54.5105 85.0982 53.1683 85.3149 51.8946 85.7293L71.6845 107.245ZM134.879 99.9263C136.533 97.7211 137.445 94.9836 137.445 92.2271H137.453V46.5983C137.453 44.241 135.533 42.3209 133.176 42.3209C130.818 42.3209 128.898 44.241 128.898 46.5983V80.817C128.898 83.8815 127.807 86.8243 125.822 89.1474L110.903 111.853C109.599 113.834 106.945 114.37 104.979 113.078C103.002 111.781 102.455 109.127 103.751 107.154C110.547 96.8294 114.261 91.1633 116.326 88.0114L116.328 88.0087C118.731 84.3427 118.903 84.0801 119.104 83.842C119.124 83.8192 119.143 83.7966 119.165 83.7712C119.903 82.9158 120.34 82.0033 120.34 80.817C120.34 76.8971 115.511 75.0759 112.899 77.9388C112.898 77.9403 112.895 77.9419 112.895 77.9419C112.893 77.9432 112.891 77.9441 112.891 77.9464C112.89 77.9479 112.887 77.9496 112.887 77.9496C112.885 77.9508 112.884 77.9517 112.884 77.954C109.793 81.3151 83.7675 109.61 80.6156 113.036C78.4674 115.389 77.2773 118.461 77.2773 121.667V137.445H111.781V132.149C111.781 131.225 112.082 130.324 112.637 129.583L134.879 99.9263Z" fill="#166337"/>
<path d="M58.0084 9.12496L51.9593 2.79069C50.3282 1.08355 47.6211 1.01892 45.9102 2.65001C44.203 4.2811 44.1384 6.98819 45.7695 8.69912L51.8186 15.0334C53.4497 16.7405 56.1568 16.8052 57.8677 15.1741C59.5749 13.543 59.6357 10.8321 58.0084 9.12496Z" fill="#166337"/>
<path d="M94.1624 2.7909C95.7935 1.08376 98.5044 1.02293 100.212 2.65402C101.919 4.28512 101.983 6.9922 100.352 8.69934L94.3031 15.0336C92.672 16.7407 89.9649 16.8092 88.254 15.1743C86.5468 13.5432 86.4822 10.8323 88.1133 9.12517L94.1624 2.7909Z" fill="#166337"/>
</svg>
