<svg width="160" height="160" viewBox="0 0 160 160" fill="none" xmlns="http://www.w3.org/2000/svg">
<path d="M94.1256 37.6498V69.2577L96.4294 64.7111C96.4461 64.6775 96.4795 64.6272 96.4962 64.5937C98.5163 61.4564 102.556 56.4065 106.83 57.7822C109.318 58.5875 110.453 60.0639 110.97 61.1712C111.755 62.8656 111.705 65.0131 110.854 67.0767L103.424 84.2563C103.141 85.4474 102.974 87.5278 102.773 89.9101C102.239 96.4867 101.488 105.496 97.4144 109.975C93.2074 114.405 92.573 120.327 92.2057 123.867C92.1723 124.236 92.1222 124.588 92.0888 124.89C92.0721 126.752 91.1706 128.464 89.6013 129.621C86.9469 131.601 81.8383 133.966 72.7064 134C72.6396 134 72.5561 134 72.4893 134C63.9083 134 58.6662 132.071 55.778 130.427C53.6578 129.252 52.4391 126.97 52.6895 124.638C52.6895 124.622 52.7062 124.538 52.7062 124.521C52.9232 122.558 52.9733 120.562 52.8732 118.632C52.606 113.213 51.7379 109.153 50.1018 103.114C49.384 100.48 49.0167 97.8624 49 95.3291V52.6149C49 48.8904 51.9216 45.8706 55.5109 45.8706C56.98 45.8706 58.349 46.3571 59.4508 47.1959V36.0057C59.4508 32.2812 62.4058 29.2614 66.0285 29.2614C67.5811 29.2614 69.0002 29.7982 70.1354 30.6874C70.6362 27.4662 73.4075 25 76.7465 25C80.436 25 83.4243 28.0199 83.4243 31.7108V32.1805C84.5429 31.3249 85.9118 30.8216 87.4143 30.8048C89.1673 30.7881 90.8868 31.5095 92.1556 32.8013C92.1556 32.8013 94.1256 34.5125 94.1256 37.6498ZM55.5109 48.5213C53.3406 48.5213 51.6544 50.3165 51.6544 52.5981V95.3123C51.6711 97.6107 52.005 99.9931 52.6561 102.409C54.3423 108.633 55.2438 112.827 55.5276 118.498C55.6278 120.562 55.561 122.709 55.3273 124.873C55.3273 124.89 55.3106 124.974 55.3106 124.991C55.177 126.199 55.8448 127.407 57.0635 128.095C59.6846 129.571 64.4926 131.332 72.4893 131.332C72.5561 131.332 72.6229 131.332 72.6897 131.332C81.5545 131.299 86.0955 128.9 88.0153 127.474C88.9168 126.819 89.4177 125.863 89.4177 124.84C89.4177 124.789 89.4177 124.706 89.4344 124.638C89.4678 124.32 89.5178 123.951 89.5512 123.565C89.9686 119.689 90.6698 113.197 95.4611 108.13C98.9002 104.355 99.6014 95.8659 100.119 89.6752C100.336 86.9909 100.52 84.877 100.87 83.4845C100.887 83.4174 100.904 83.3503 100.937 83.2832L108.399 66.0197C108.967 64.6608 109.017 63.2851 108.55 62.2784C108.132 61.3725 107.281 60.7014 106.012 60.2988C103.808 59.5941 100.82 62.7482 98.75 65.9526L89.6013 84.0046C89.4177 84.3737 89.0671 84.6421 88.6497 84.7093C88.1322 84.8099 75.7949 87.3936 75.7949 108.147C75.7949 108.885 75.1939 109.489 74.4593 109.489C73.7247 109.489 73.1237 108.885 73.1237 108.147C73.1237 87.6117 84.5429 83.0819 87.4978 82.243L91.4377 74.4753V37.6498C91.4377 36.5426 91.0037 35.4856 90.2357 34.6803C89.4845 33.9086 88.4661 33.4891 87.4143 33.4891H87.3976C85.2273 33.5059 83.4744 35.2675 83.3909 37.5324V74.8108C83.3909 75.549 82.7899 76.153 82.0554 76.153C81.3208 76.153 80.7198 75.549 80.7198 74.8108V31.7108C80.7198 29.4795 78.9168 27.6675 76.6964 27.6675C74.476 27.6675 72.673 29.4795 72.673 31.7108V74.7941C72.673 75.5322 72.072 76.1362 71.3374 76.1362C70.6028 76.1362 70.0018 75.5322 70.0018 74.7941V35.9721C70.0018 33.7408 68.1988 31.9289 65.9784 31.9289C63.7747 31.9289 62.0552 33.724 62.0552 36.0057V52.078C62.0719 52.2458 62.0719 52.4136 62.0719 52.5813V74.8108C62.0719 75.549 61.4709 76.153 60.753 76.153C60.0184 76.153 59.4341 75.5658 59.4174 74.8276L59.4508 52.1787C59.2505 50.1319 57.5643 48.5213 55.5109 48.5213Z" fill="#F2F2F2"/>
</svg>
