<svg width="77" height="100" viewBox="0 0 77 100" fill="none" xmlns="http://www.w3.org/2000/svg">
<path d="M74.0376 0H21.3032C21.0506 0 20.7459 0.0416667 20.4803 0.119792C20.0037 0.260417 19.5741 0.515625 19.2277 0.861979L1.65218 18.4375C1.12614 18.9661 0.811035 19.6849 0.798014 20.4635C0.798014 20.4766 0.79541 20.4922 0.79541 20.5078V97.0703C0.79541 98.6875 2.10531 100 3.7251 100H73.8371C76.134 100 76.9673 98.2474 76.9673 97.0703V2.92969C76.9673 1.3125 75.6548 0 74.0376 0ZM18.3735 10.0026V17.5781H10.798L18.3735 10.0026ZM71.1079 94.1406C59.6756 94.1406 18.1001 94.1406 6.65479 94.1406V23.4375H21.3032C22.9204 23.4375 24.2329 22.125 24.2329 20.5078V5.85938H71.1079V94.1406Z" fill="#219653"/>
<path d="M62.5272 82.2268H58.3006L58.2433 82.107C55.1678 75.7294 49.0246 71.3987 42.009 70.6305V64.6487H44.7433C56.0506 64.6487 65.2511 55.4482 65.2511 44.1409V38.2815C65.2511 36.6643 63.9386 35.3518 62.3215 35.3518H56.4621C49.0116 35.3518 42.4751 39.3466 38.884 45.3075C35.2928 39.3466 28.7563 35.3518 21.3058 35.3518H15.4465C13.8241 35.3518 12.5142 36.6643 12.5142 38.2815V44.1409C12.5142 55.4482 21.7147 64.6487 33.022 64.6487H36.147V70.5966C29.186 71.2372 22.9048 75.4013 19.6834 81.844L19.4933 82.2268H15.4438C13.8241 82.2268 12.5142 83.5393 12.5142 85.1565C12.5142 86.7737 13.8267 88.0862 15.4438 88.0862C16.9386 88.0862 61.0923 88.0862 62.5272 88.0862C64.1444 88.0862 65.4569 86.7737 65.4569 85.1565C65.4569 83.5393 64.1444 82.2268 62.5272 82.2268ZM35.9517 58.7893H33.022C24.9438 58.7893 18.3735 52.219 18.3735 44.1409V41.2112H21.3032C29.3813 41.2112 35.9517 47.7815 35.9517 55.8596V58.7893ZM41.811 55.8596C41.811 47.7815 48.3814 41.2112 56.4595 41.2112H59.3892V44.1409C59.3892 52.219 52.8189 58.7893 44.7407 58.7893H41.811V55.8596ZM26.3032 82.2268C29.0376 78.5601 33.3319 76.3674 38.0272 76.3674H39.7694C44.397 76.3674 48.7433 78.5992 51.4803 82.2268H26.3032Z" fill="#219653"/>
<path d="M62.319 11.7185H38.8815C37.2617 11.7185 35.9518 13.031 35.9518 14.6482C35.9518 16.2654 37.2617 17.5779 38.8815 17.5779H62.319C63.9362 17.5779 65.2487 16.2654 65.2487 14.6482C65.2487 13.031 63.9362 11.7185 62.319 11.7185Z" fill="#219653"/>
<path d="M62.319 23.4375H38.8815C37.2617 23.4375 35.9518 24.75 35.9518 26.3672C35.9518 27.9844 37.2617 29.2969 38.8815 29.2969H62.319C63.9362 29.2969 65.2487 27.9844 65.2487 26.3672C65.2487 24.75 63.9362 23.4375 62.319 23.4375Z" fill="#219653"/>
</svg>
