<svg width="99" height="100" viewBox="0 0 99 100" fill="none" xmlns="http://www.w3.org/2000/svg">
<path fill-rule="evenodd" clip-rule="evenodd" d="M11.7197 44.1405C11.7197 26.3722 26.1781 11.9138 43.9464 11.9138C61.7173 11.9138 76.1731 26.3696 76.1731 44.1405C76.1731 61.9088 61.7173 76.3672 43.9464 76.3672C26.1781 76.3672 11.7197 61.9088 11.7197 44.1405ZM38.087 52.9296H41.0167V49.9999C41.0167 45.1535 37.0739 41.2108 32.2276 41.2108H29.2979V44.1405C29.2979 48.9869 33.2406 52.9296 38.087 52.9296ZM46.8761 58.789V70.3438C60.0428 68.8828 70.3137 57.6901 70.3137 44.1405C70.3137 29.6014 58.4855 17.7732 43.9464 17.7732C29.4072 17.7732 17.5791 29.6014 17.5791 44.1405C17.5791 57.6901 27.8499 68.8828 41.0167 70.3438V58.789H38.087C30.0088 58.789 23.4385 52.2187 23.4385 44.1405V38.2811C23.4385 36.6639 24.751 35.3514 26.3682 35.3514H32.2276C37.014 35.3514 41.2719 37.6587 43.9464 41.2212C46.6209 37.6587 50.8787 35.3514 55.6652 35.3514H61.5246C63.1418 35.3514 64.4543 36.6639 64.4543 38.2811V44.1405C64.4543 52.2187 57.8839 58.789 49.8058 58.789H46.8761ZM46.8761 49.9999V52.9296H49.8058C54.6521 52.9296 58.5949 48.9869 58.5949 44.1405V41.2108H55.6652C50.8188 41.2108 46.8761 45.1535 46.8761 49.9999Z" fill="#219653"/>
<path fill-rule="evenodd" clip-rule="evenodd" d="M87.7044 40.6091L96.0846 50.0102C98.4205 52.6326 98.9804 56.2498 97.5403 59.453C96.1028 62.6561 93.0299 64.6483 89.5195 64.6483H87.8893V79.2968C87.8893 81.703 86.9361 83.9478 85.2043 85.6197C83.4726 87.2916 81.1965 88.164 78.7903 88.0807L70.3111 88.0859V97.0703C70.3111 98.6875 68.9986 100 67.3814 100H14.6468C13.0296 100 11.7171 98.6875 11.7171 97.0703C11.7171 95.4694 11.7349 93.9399 11.7521 92.4694C11.8644 82.848 11.9472 75.7488 6.80818 67.6483C1.80816 59.7628 -0.51216 50.6274 0.0946133 41.2263C1.33941 21.9684 18.8785 2.89282 38.0271 0.3876C63.9282 -3.00304 85.8085 16.3043 87.7018 40.5857C87.7044 40.5935 87.7044 40.6013 87.7044 40.6091ZM89.5221 58.7889C91.2825 58.7889 92.0143 57.4634 92.1966 57.0571C92.3789 56.6509 92.8815 55.2238 91.7122 53.9113L82.6601 43.7576C82.2174 43.2602 81.9569 42.6274 81.9205 41.9633C81.9048 41.6534 81.884 41.3461 81.8606 41.0388C80.2147 19.9372 61.1938 3.26522 38.7901 6.19752C22.3708 8.34597 7.02433 24.8903 5.9436 41.6039C5.41495 49.7576 7.42798 57.6795 11.7587 64.5077C17.8119 74.0512 17.7229 82.3707 17.6077 93.1514C17.6042 93.4788 17.6007 93.8085 17.5973 94.1406H64.4543V85.0494C64.4543 84.2551 64.7772 83.4947 65.3475 82.9426C65.9204 82.3905 66.6938 82.0025 67.4855 82.0312H78.9986C79.8033 82.0572 80.5585 81.7655 81.1366 81.2083C81.7147 80.651 82.0325 79.9036 82.0325 79.1015V61.7186C82.0325 60.1014 83.345 58.7889 84.9622 58.7889H89.5221Z" fill="#219653"/>
</svg>
