<svg width="101" height="100" viewBox="0 0 101 100" fill="none" xmlns="http://www.w3.org/2000/svg">
<path d="M99.3021 94.9948L94.3047 90.0182V73.6536C98.1406 66.4766 100.164 58.3854 100.164 50.1979C100.164 22.7187 77.7448 0 50.1641 0C22.7083 0 0.164062 22.6016 0.164062 50.1953C0.164062 77.5469 22.4844 100 50.1641 100C58.4766 100 66.6354 97.9766 73.8151 94.1406H90.1406L95.1667 99.1458C96.3125 100.286 98.1667 100.284 99.3099 99.138C100.451 97.9922 100.448 96.1354 99.3021 94.9948ZM35.3802 8.42188C33.7891 10.4583 32.3099 12.8411 30.9661 15.5573C29.7344 18.0547 28.6484 20.7604 27.7214 23.6354H14.8437C20.0078 16.724 27.1328 11.375 35.3802 8.42188ZM11.1432 29.474H26.0937C24.7943 35.0286 24.026 41.0573 23.8438 47.2656H6.1224C6.53906 40.8802 8.30729 34.8411 11.1432 29.474ZM11.1354 70.7031C8.30729 65.3906 6.54427 59.4401 6.125 53.125H23.8438C24.026 59.3906 24.7969 65.3125 26.0547 70.7031H11.1354ZM14.8724 76.5625H27.6771C29.6198 82.5521 32.2188 87.6667 35.2995 91.5729C27.1016 88.6458 20.0182 83.3698 14.8724 76.5625ZM47.2344 93.6458C43.2109 92.2969 39.3099 88.2292 36.2109 82.0312C35.3542 80.3203 34.5781 78.4896 33.8828 76.5625H47.2344V93.6458ZM47.2344 70.7031H32.0911C30.7135 65.2943 29.8984 59.3359 29.7031 53.125H47.2344V70.7031ZM47.2344 47.2656H29.7031C29.8984 40.9948 30.7266 34.9714 32.1198 29.4922H47.2344V47.2656ZM47.2344 23.6328H33.9036C34.5964 21.7031 35.3672 19.8698 36.2161 18.1536C39.3229 11.8672 43.2214 7.73958 47.2344 6.36719V23.6328ZM89.1875 29.4922C92.0208 34.862 93.7891 40.8802 94.2057 47.2656H76.6797C76.4922 41.0625 75.7135 35.0521 74.3932 29.4922H89.1875ZM85.4844 23.6328H72.7474C71.8047 20.7578 70.7057 18.0469 69.4557 15.5443C68.1068 12.8437 66.6224 10.4766 65.0286 8.44792C73.2422 11.4089 80.3359 16.7448 85.4844 23.6328ZM53.0937 6.36198C57.1302 7.73177 61.0651 11.8646 64.2135 18.1641C65.0703 19.8802 65.8516 21.7109 66.5521 23.6328H53.0937V6.36198ZM53.0937 29.4922H68.362C69.7786 34.9766 70.6172 41.0026 70.8177 47.2656H53.0911V29.4922H53.0937ZM53.0937 94.0443V84.2708C55.8542 87.6771 59.4479 90.3906 63.5651 92.1042C60.1901 93.1589 56.6693 93.8151 53.0937 94.0443ZM73.7969 88.2812C62.3802 88.2812 53.0937 79.0807 53.0937 67.7734V57.2474L84.2578 88.2812H73.7969ZM88.4453 84.1823L57.2578 53.125H67.9375C79.2448 53.125 88.4453 62.3255 88.4453 73.6328V84.1823ZM92.2604 63.4557C90.5573 59.3984 87.8646 55.8333 84.4896 53.1042H94.2057C93.9714 56.6224 93.3151 60.112 92.2604 63.4557Z" fill="#219653"/>
</svg>
