<svg width="100" height="100" viewBox="0 0 100 100" fill="none" xmlns="http://www.w3.org/2000/svg">
<path d="M47.0703 2.92969C47.0703 1.3125 48.3802 0 50 0C51.6172 0 52.9297 1.3125 52.9297 2.92969V8.98438C52.9297 10.6016 51.6172 11.9141 50 11.9141C48.3802 11.9141 47.0703 10.6016 47.0703 8.98438V2.92969Z" fill="#219653"/>
<path fill-rule="evenodd" clip-rule="evenodd" d="M82.4219 31.9193C82.4219 27.0729 86.3646 23.1302 91.2109 23.1302C96.0573 23.1302 100 27.0729 100 31.9193V63.1693C100 66.3177 98.9583 69.4401 97.0703 71.9583L82.4219 91.4896V97.0703C82.4219 98.6875 81.1094 100 79.4922 100H20.5078C18.8906 100 17.5781 98.6875 17.5781 97.0703V91.4896L2.92969 71.9583C1.04167 69.4401 0 66.3177 0 63.1693V31.9193C0 27.0729 3.94271 23.1302 8.79167 23.1302C13.638 23.1302 17.5807 27.0729 17.5807 31.9193V47.0703C20.9036 45.8932 24.6094 46.8255 26.9896 49.4193L26.9974 49.4271L31.362 54.1719C33.4792 53.0365 35.8646 52.4271 38.2839 52.4271C40.4401 49.5573 43.5807 47.5807 47.0729 46.8646V41.2109H44.1849C32.7682 41.2109 23.4818 32.0104 23.4818 20.7031C23.4818 19.0859 24.7943 17.7734 26.4115 17.7734H32.4661C39.9167 17.7734 46.4531 21.7682 50.0443 27.7292C53.6354 21.7682 60.1719 17.7734 67.6224 17.7734H73.6771C75.2943 17.7734 76.6068 19.0859 76.6068 20.7031C76.6068 32.0104 67.3203 41.2109 55.9036 41.2109H52.9323V46.8646C56.4245 47.5807 59.5651 49.5573 61.7214 52.4271C64.1458 52.4271 66.5755 53.026 68.6953 54.112L73.0052 49.4271L73.013 49.4193C75.3932 46.8229 79.1016 45.8932 82.4219 47.0703V31.9193ZM70.4479 23.6328H67.6198C60.5469 23.6328 54.6276 28.6745 53.2656 35.3516H55.901C63.0703 35.3516 69.0677 30.3099 70.4479 23.6328ZM29.638 23.6328C31.0156 30.3099 37.013 35.3516 44.1823 35.3516H46.8203C45.4583 28.6745 39.5391 23.6328 32.4661 23.6328H29.638ZM23.4375 94.1406H47.0703V94.1311C47.0703 91.9419 47.0703 85.4266 47.0729 83.3385C47.0729 81.1432 46.2578 79.0391 44.7786 77.4167L22.6849 53.3984L22.6797 53.3932C22.6787 53.3922 22.6777 53.3916 22.6768 53.3911C22.6755 53.3902 22.6745 53.3896 22.6745 53.388C20.8854 51.4245 17.5781 52.6771 17.5781 55.3594C17.5781 56.1354 17.8776 56.8672 18.4245 57.4193L18.4562 57.4512C18.5985 57.5957 18.7188 57.7619 21.878 62.1265C23.5591 64.4489 26.1007 67.9603 29.9635 73.2891C30.9141 74.599 30.6198 76.4323 29.3099 77.3802C28 78.3307 26.1667 78.0365 25.2187 76.7266L14.0781 61.3464C12.5547 59.7135 11.7188 57.599 11.7188 55.3568V31.9193C11.7188 30.3047 10.4036 28.9896 8.78906 28.9896C7.17448 28.9896 5.85938 30.3047 5.85938 31.9193V63.1693C5.85938 65.0573 6.48438 66.9323 7.61719 68.4427L22.8516 88.7552C23.2318 89.263 23.4375 89.8802 23.4375 90.513V94.1406ZM49.099 73.4557C49.4193 73.8073 49.7187 74.1719 50 74.5469C50.2786 74.1745 50.5755 73.8125 50.8958 73.4635L64.474 58.7031C63.5833 58.4323 62.6458 58.2865 61.7214 58.2865C61.3411 58.2865 60.9583 58.3125 60.5833 58.3594C59.4036 58.5104 58.2448 57.9349 57.6589 56.8958C56.099 54.138 53.1641 52.4271 50.0026 52.4271C46.8411 52.4271 43.9062 54.1406 42.3464 56.8958C41.7578 57.9323 40.6042 58.513 39.4219 58.3594C39.0469 58.3099 38.6641 58.2865 38.2839 58.2865C37.3359 58.2865 36.4167 58.4349 35.5443 58.7187L49.099 73.4557ZM92.3828 68.4427C93.5156 66.9323 94.1406 65.0573 94.1406 63.1693H94.1458V31.9167C94.1458 30.3021 92.8307 28.987 91.2161 28.987C89.6016 28.987 88.2865 30.3021 88.2865 31.9167V55.3542C88.2865 57.4531 87.5391 59.4688 86.1797 61.0599L75.9609 76.612C75.0677 77.9688 73.25 78.3359 71.9036 77.4505C70.5495 76.5625 70.1745 74.7448 71.0625 73.3932C75.7177 66.3205 78.2614 62.4395 79.6762 60.2809L79.6772 60.2795C81.3226 57.769 81.4405 57.5891 81.5783 57.4261C81.5915 57.4104 81.6049 57.395 81.6198 57.3776C82.125 56.7917 82.4245 56.1667 82.4245 55.3542C82.4245 52.6693 79.1172 51.4219 77.3281 53.3828C77.3271 53.3838 77.3261 53.3844 77.3253 53.385C77.3249 53.3852 77.3246 53.3854 77.3243 53.3856C77.3238 53.3859 77.3234 53.3863 77.3231 53.3869C77.323 53.3872 77.3229 53.3876 77.3229 53.388C77.3219 53.389 77.3209 53.3896 77.3201 53.3902C77.3187 53.391 77.3177 53.3916 77.3177 53.3932C75.2005 55.6953 57.375 75.0755 55.2161 77.4219C53.7448 79.0339 52.9297 81.138 52.9297 83.3333V94.1406H76.5625V90.513C76.5625 89.8802 76.7682 89.263 77.1484 88.7552L92.3828 68.4427Z" fill="#219653"/>
<path d="M39.7318 6.25008L35.5886 1.91154C34.4714 0.742266 32.6172 0.697995 31.4454 1.81518C30.2761 2.93237 30.2318 4.78654 31.349 5.95841L35.4922 10.297C36.6094 11.4662 38.4636 11.5105 39.6355 10.3933C40.8047 9.27612 40.8464 7.41935 39.7318 6.25008Z" fill="#219653"/>
<path d="M64.4948 1.9114C65.612 0.742126 67.4688 0.700459 68.638 1.81765C69.8073 2.93483 69.8516 4.789 68.7344 5.95827L64.5911 10.2968C63.474 11.4661 61.6198 11.513 60.4479 10.3932C59.2786 9.27598 59.2344 7.41921 60.3516 6.24994L64.4948 1.9114Z" fill="#219653"/>
</svg>
