<svg width="160" height="160" viewBox="0 0 160 160" fill="none" xmlns="http://www.w3.org/2000/svg">
<path d="M96.133 115.642C94.1576 112.659 91.639 110.038 89.514 107.15C88.0265 105.111 86.4131 103.025 85.5473 100.696C82.7927 93.2268 84.1071 86.2772 89.3173 80.3508C91.8437 77.4781 94.8187 75.0147 97.6127 72.3939C101.54 68.7184 104.106 64.4211 104.326 58.7545C104.546 52.7257 101.587 47.8067 96.1881 46.3271C93.4414 45.5794 87.696 45.1623 87.6802 45.2882C79.4242 45.6975 71.4908 47.4211 64.2264 51.5924C57.6153 55.4095 52.8616 60.8244 51.5394 68.7184C50.4218 75.361 51.0435 81.9879 53.381 88.2527C55.4746 93.8564 58.119 99.2398 60.5903 104.694C63.5024 111.1 65.4149 117.751 65.5723 124.866C65.6116 126.7 65.6825 128.557 66.0288 130.344C67.1778 136.357 69.9797 141.197 75.6385 143.826C79.0464 145.415 82.6432 145.093 86.2085 144.581C92.8983 143.621 97.2821 139.646 98.6279 133.366C99.9738 127.148 99.7141 121.08 96.133 115.642Z" stroke="#F2F2F2" stroke-width="3"/>
<path d="M105.703 36.1585C108.182 33.1048 109.158 29.508 109.276 25.1872C109.197 24.5575 109.135 23.495 108.938 22.4404C108.78 21.5668 108.513 20.701 108.198 19.8747C106.191 14.5307 101.193 13.4052 97.1794 17.3719C93.1734 21.3307 91.8747 29.9802 94.5271 35.033C97.14 39.9835 102.153 40.5108 105.703 36.1585Z" stroke="#F2F2F2" stroke-width="3"/>
<path d="M86.6082 35.7649C89.6698 32.7191 90.3702 26.6431 88.0878 22.9441C86.0573 19.6542 82.5156 19.4732 80.123 22.5663C78.5646 24.5732 77.9271 26.9344 77.9507 29.4765C77.9271 31.6723 78.4387 33.5455 79.4619 35.0487C81.3271 37.8034 84.2785 38.0946 86.6082 35.7649Z" stroke="#F2F2F2" stroke-width="3"/>
<path d="M73.2067 37.7798C74.4895 36.1899 74.8752 34.2932 74.9618 32.3098C74.8673 30.2635 74.4659 28.3274 73.1201 26.7297C71.4752 24.7857 69.1534 24.8015 67.5085 26.7297C65.1395 29.508 65.108 34.9622 67.4377 37.7955C69.1298 39.8576 71.5381 39.8576 73.2067 37.7798Z" stroke="#F2F2F2" stroke-width="3"/>
<path d="M64.366 41.4395C65.7591 38.9367 64.9327 34.6946 62.7054 32.9238C61.0211 31.5858 59.0378 31.9478 58.1012 33.8997C57.6762 34.7969 57.5424 35.8279 57.2748 36.8039C57.4952 39.0391 58.1169 40.9831 59.8327 42.384C61.454 43.722 63.335 43.2891 64.366 41.4395Z" stroke="#F2F2F2" stroke-width="3"/>
<path d="M56.9842 48.0664C57.6138 47.0826 57.8735 45.8391 58.3222 44.6271C57.8814 43.4701 57.6296 42.321 57.0472 41.3923C56.0791 39.8576 54.3161 39.8655 53.1434 41.2743C51.7032 42.99 51.6008 46.2562 52.9388 48.0822C54.1115 49.6641 55.9296 49.7349 56.9842 48.0664Z" stroke="#F2F2F2" stroke-width="3"/>
</svg>
