<svg width="64" height="64" viewBox="0 0 64 64" fill="none" xmlns="http://www.w3.org/2000/svg">
<rect x="2" y="1.64307" width="60" height="60" rx="5" stroke="#C4C4C4" stroke-width="3"/>
<path d="M37.5587 27.39V16.7318C37.5587 16.0967 37.3628 15.6038 37.1659 15.2694C37.0676 15.1025 36.9688 14.9746 36.8933 14.8873C36.8555 14.8437 36.8235 14.81 36.8 14.7864C36.7882 14.7747 36.7786 14.7654 36.7715 14.7588L36.7669 14.7545C36.2603 14.2314 35.5721 13.9361 34.8655 13.943L34.8651 13.943C34.4268 13.948 34.0166 14.0584 33.6531 14.2523C33.5173 12.879 32.3817 11.79 30.9881 11.79C29.7758 11.79 28.7564 12.6125 28.4212 13.7346C28.0299 13.5043 27.5766 13.3706 27.0901 13.3706C25.6243 13.3706 24.4478 14.6129 24.4478 16.122V19.8174C24.0907 19.6332 23.688 19.5308 23.2649 19.5308C21.8089 19.5308 20.647 20.7757 20.647 22.2823L20.647 38.1248L20.647 38.1264C20.6532 39.0884 20.7899 40.0802 21.0561 41.0764C21.6491 43.3089 21.96 44.7954 22.0559 46.7799L22.0559 46.7805C22.0917 47.4834 22.0738 48.2106 21.9963 48.925L21.9961 48.9273L21.9951 48.9336L21.9924 48.9507L21.9907 48.9638L21.9902 48.9693C21.99 48.9709 21.9898 48.9726 21.9897 48.9742C21.8901 49.9385 22.3845 50.8766 23.238 51.3593C24.3305 51.9932 26.2807 52.7176 29.4398 52.7176H29.44H29.4401H29.4402H29.4404H29.4405H29.4407H29.4408H29.441H29.4411H29.4413H29.4414H29.4415H29.4417H29.4418H29.442H29.4421H29.4423H29.4424H29.4426H29.4427H29.4428H29.443H29.4431H29.4433H29.4434H29.4436H29.4437H29.4439H29.444H29.4442H29.4443H29.4444H29.4446H29.4447H29.4449H29.445H29.4452H29.4453H29.4455H29.4456H29.4458H29.4459H29.4461H29.4462H29.4464H29.4465H29.4467H29.4468H29.447H29.4471H29.4472H29.4474H29.4475H29.4477H29.4478H29.448H29.4481H29.4483H29.4484H29.4486H29.4487H29.4489H29.449H29.4492H29.4493H29.4495H29.4496H29.4498H29.4499H29.4501H29.4502H29.4504H29.4505H29.4507H29.4508H29.451H29.4512H29.4513H29.4515H29.4516H29.4518H29.4519H29.4521H29.4522H29.4524H29.4525H29.4527H29.4528H29.453H29.4531H29.4533H29.4534H29.4536H29.4537H29.4539H29.454H29.4542H29.4544H29.4545H29.4547H29.4548H29.455H29.4551H29.4553H29.4554H29.4556H29.4557H29.4559H29.456H29.4562H29.4564H29.4565H29.4567H29.4568H29.457H29.4571H29.4573H29.4574H29.4576H29.4577H29.4579H29.4581H29.4582H29.4584H29.4585H29.4587H29.4588H29.459H29.4591H29.4593H29.4595H29.4596H29.4598H29.4599H29.4601H29.4602H29.4604H29.4605H29.4607H29.4609H29.461H29.4612H29.4613H29.4615H29.4616H29.4618H29.462H29.4621H29.4623H29.4624H29.4626H29.4627H29.4629H29.4631H29.4632H29.4634H29.4635H29.4637H29.4638H29.464H29.4642H29.4643H29.4645H29.4646H29.4648H29.4649H29.4651H29.4653H29.4654H29.4656H29.4657H29.4659H29.4661H29.4662H29.4664H29.4665H29.4667H29.4668H29.467H29.4672H29.4673H29.4675H29.4676H29.4678H29.468H29.4681H29.4683H29.4684H29.4686H29.4687H29.4689H29.4691H29.4692H29.4694H29.4695H29.4697H29.4699H29.47H29.4702H29.4703H29.4705H29.4707H29.4708H29.471H29.4711H29.4713H29.4715H29.4716H29.4718H29.4719H29.4721H29.4723H29.4724H29.4726H29.4727H29.4729H29.4731H29.4732H29.4734H29.4735H29.4737H29.4738H29.474H29.4742H29.4743H29.4745H29.4746H29.4748H29.475H29.4751H29.4753H29.4754H29.4756H29.4758H29.4759H29.4761H29.4762H29.4764H29.4766H29.4767H29.4769H29.477H29.4772H29.4774H29.4775H29.4777H29.4778H29.478H29.4782H29.4783H29.4785H29.4786H29.4788H29.479H29.4791H29.4793H29.4794H29.4796H29.4798H29.4799H29.4801H29.4802H29.4804H29.4806H29.4807H29.4809H29.481H29.4812H29.4814H29.4815H29.4817H29.4818H29.482H29.4822H29.4823H29.4825H29.4826H29.4828H29.483H29.4831H29.4833H29.4834H29.4836H29.4838H29.4839H29.4841H29.4842H29.4844H29.4846H29.4847H29.4849H29.485H29.4852H29.4854H29.4855H29.4857H29.4858H29.486H29.4862H29.4863H29.4865H29.4866H29.4868H29.487H29.4871H29.4873H29.4874H29.4876H29.4878H29.4879H29.4881H29.4882H29.4884H29.4886H29.4887H29.4889H29.489H29.4892H29.4894H29.4895H29.4897H29.4898H29.49H29.4901H29.4903H29.4905H29.4906H29.4908H29.4909H29.4911H29.4913H29.4914H29.4916H29.4917H29.4919H29.4921H29.4922H29.4924H29.4925H29.4927H29.4928H29.493H29.4932H29.4933H29.4935H29.4936H29.4938H29.4939H29.4941H29.4943H29.4944H29.4946H29.4947H29.4949H29.4951H29.4952H29.4954H29.4955H29.4957H29.4958H29.496H29.4962H29.4963H29.4965H29.4966H29.4968H29.4969H29.4971H29.4972H29.4974H29.4976H29.4977H29.4979H29.498H29.4982H29.4983H29.4985H29.4987H29.4988H29.499H29.4991H29.4993H29.4994H29.4996H29.4997H29.4999H29.5001H29.5002H29.5004H29.5005H29.5007H29.5008H29.501H29.5011H29.5013H29.5015H29.5016H29.5018H29.5019H29.5021H29.5022H29.5024H29.5025H29.5027H29.5028H29.503H29.5032H29.5033H29.5035H29.5036H29.5038H29.5039H29.5041H29.5042H29.5044H29.5045H29.5047H29.5048H29.505H29.5051H29.5053H29.5055H29.5056H29.5058H29.5059H29.5061H29.5062H29.5064H29.5065H29.5067H29.5068H29.507H29.5071H29.5073H29.5074H29.5076H29.5077H29.5079H29.508H29.5082H29.5083H29.5085H29.5086H29.5088H29.5089H29.5091H29.5092H29.5094H29.5095H29.5097H29.5098H29.51H29.5101H29.5103H29.5104H29.5106H29.5107H29.5109H29.511H29.5112H29.5113H29.5115H29.5116H29.5118H29.5119H29.5121H29.5122H29.5124H29.5125H29.5127H29.5128H29.513H29.5131H29.5133H29.5134H29.5135H29.5137H29.5138H29.514H29.5141H29.5143H29.5144H29.5146H29.5147H29.5149H29.515H29.5152H29.5153H29.5154H29.5156H29.5157H29.5159H29.516H29.5162H29.5163H29.5165H29.5166H29.5167H29.5169H29.517H29.5172H29.5173H29.5175H29.5176H29.5178H29.5179H29.518H29.5182H29.5183H29.5185H29.5186H29.5188H29.5197C32.8858 52.705 34.7987 51.815 35.814 51.043C36.4404 50.5716 36.8071 49.8705 36.8178 49.104C36.8213 49.0725 36.8256 49.0369 36.8302 48.9987C36.84 48.9169 36.8513 48.8233 36.8594 48.733M37.5587 27.39L40.703 36.1354M37.5587 27.39L37.9219 26.6591C37.9221 26.6588 37.9222 26.6585 37.9223 26.6582C37.9269 26.6489 37.9314 26.6407 37.9344 26.6354L37.943 26.6206L37.9475 26.6128L37.9477 26.6125L37.9522 26.6032L37.9595 26.5917C38.332 26.0017 38.8992 25.2173 39.5817 24.643C40.2595 24.0726 41.1065 23.6656 42.0072 23.9613L42.0076 23.9614C42.9866 24.2846 43.449 24.8862 43.6623 25.3516L43.6627 25.3524C43.9822 26.0562 43.9538 26.9255 43.6243 27.7398L43.6227 27.7437L43.6227 27.7437L40.9294 34.0953C40.8374 34.504 40.7795 35.2071 40.71 36.05L40.7031 36.1348L37.5587 27.39ZM36.8594 48.733C36.8593 48.7335 36.8592 48.734 36.8592 48.7346L36.6105 48.7093L36.8595 48.7313C36.8594 48.7319 36.8594 48.7324 36.8594 48.733ZM36.8594 48.733C36.9936 47.4131 37.2225 45.3006 38.6878 43.7274L38.6878 43.7275L38.6914 43.7234C39.4772 42.8422 39.9267 41.5377 40.2069 40.1781C40.4882 38.8128 40.606 37.3527 40.703 36.1354M40.703 36.1354L40.4538 36.1149L40.703 36.1354ZM42.5 27.2541C42.7064 26.75 42.7247 26.2398 42.5546 25.8664C42.4029 25.5304 42.0932 25.2815 41.6318 25.1322C40.8303 24.8708 39.7435 26.0407 38.9906 27.2292M42.5 27.2541L42.2698 27.1565L42.2692 27.1579C42.4574 26.6976 42.4603 26.2626 42.3271 25.97L42.3268 25.9694C42.212 25.7151 41.97 25.5044 41.5548 25.37L41.5542 25.3699C41.426 25.3281 41.2704 25.3375 41.0805 25.4142C40.8892 25.4916 40.6786 25.6315 40.4577 25.825C40.0189 26.2095 39.5766 26.773 39.2087 27.3521M42.5 27.2541L39.786 33.657L42.5 27.2541ZM39.2087 27.3521L39.2145 27.3404L38.9906 27.2292M39.2087 27.3521C39.2064 27.3557 39.2041 27.3593 39.2018 27.363L38.9906 27.2292M39.2087 27.3521L35.888 34.0342L35.6633 33.9246M38.9906 27.2292L35.6633 33.9246M35.6633 33.9246L35.8872 34.0358L35.8875 34.0352M35.6633 33.9246C35.5965 34.0615 35.469 34.161 35.3172 34.1859C35.129 34.2233 30.642 35.1815 30.642 42.8788C30.642 43.1526 30.4234 43.3766 30.1563 43.3766C29.8891 43.3766 29.6705 43.1526 29.6705 42.8788C29.6705 35.2624 33.8236 33.5823 34.8983 33.2712L36.3312 30.3902V16.7318C36.3312 16.3211 36.1733 15.9291 35.894 15.6304C35.6208 15.3442 35.2504 15.1886 34.8679 15.1886H34.8618C34.0725 15.1948 33.435 15.8482 33.4046 16.6882V30.5147C33.4046 30.7884 33.186 31.0125 32.9189 31.0125C32.6517 31.0125 32.4332 30.7884 32.4332 30.5147V14.529C32.4332 13.7014 31.7774 13.0294 30.9699 13.0294C30.1624 13.0294 29.5066 13.7014 29.5066 14.529V30.5084C29.5066 30.7822 29.288 31.0062 29.0209 31.0062C28.7537 31.0062 28.5351 30.7822 28.5351 30.5084V16.1096C28.5351 15.282 27.8794 14.6099 27.0719 14.6099C26.2704 14.6099 25.645 15.2757 25.645 16.122V22.0832C25.6511 22.1454 25.6511 22.2076 25.6511 22.2698V22.2698V30.5147C25.6511 30.7884 25.4325 31.0125 25.1714 31.0125C24.9043 31.0125 24.6918 30.7947 24.6857 30.5209L35.8875 34.0352M35.8875 34.0352C35.7876 34.2392 35.5959 34.3919 35.3625 34.4318C35.2705 34.4506 34.1724 34.6922 33.0903 35.832C31.997 36.9837 30.892 39.0818 30.892 42.8788C30.892 43.2848 30.5673 43.6266 30.1563 43.6266C29.7453 43.6266 29.4205 43.2848 29.4205 42.8788C29.4205 39.0228 30.473 36.6391 31.6891 35.1757C32.8328 33.7995 34.1033 33.259 34.7225 33.0633L36.0812 30.3315V16.7318C36.0812 16.3861 35.9485 16.0552 35.7123 15.8021C35.4863 15.5659 35.1817 15.4386 34.8679 15.4386H34.8629C34.2217 15.4442 33.6826 15.9761 33.6546 16.6929V30.5147C33.6546 30.9207 33.3299 31.2625 32.9189 31.2625C32.5079 31.2625 32.1832 30.9207 32.1832 30.5147V14.529C32.1832 13.8337 31.6336 13.2794 30.9699 13.2794C30.3062 13.2794 29.7566 13.8337 29.7566 14.529V30.5084C29.7566 30.9145 29.4318 31.2562 29.0209 31.2562C28.6099 31.2562 28.2851 30.9145 28.2851 30.5084V16.1096C28.2851 15.4142 27.7356 14.8599 27.0719 14.8599C26.4223 14.8599 25.895 15.3996 25.895 16.122V22.0717C25.9011 22.1416 25.9011 22.2093 25.9011 22.2653V22.2698V30.5147C25.9011 30.9186 25.5783 31.2625 25.1714 31.2625C24.7596 31.2625 24.4446 30.9271 24.4358 30.5264L24.4356 30.5205L24.4357 30.5205L24.4478 22.1328M35.8875 34.0352L24.4478 22.1328M24.4478 22.1328C24.3811 21.4964 23.8683 21.014 23.2649 21.014C22.6315 21.014 22.1124 21.5493 22.1124 22.2761V38.1177C22.1184 38.9474 22.2366 39.8098 22.4684 40.6867C22.4684 40.6868 22.4684 40.6868 22.4684 40.6868L22.2267 40.7507L24.4478 22.1328ZM21.9966 48.9243L21.9965 48.925L21.9966 48.9243ZM29.4398 51.2283C26.5705 51.2283 24.8657 50.5841 23.9543 50.0606L39.5188 33.6724C39.3853 34.2134 39.3175 35.0214 39.2392 36.008L39.2383 36.0198C39.1442 37.1678 39.0342 38.5096 38.7945 39.7383C38.5524 40.9797 38.1861 42.0577 37.6095 42.7043C35.811 44.6451 35.5493 47.1237 35.3978 48.5579L35.3965 48.571L35.3964 48.571L35.396 48.5761C35.3885 48.6642 35.3793 48.7443 35.3702 48.8234C35.365 48.8679 35.3599 48.9121 35.3552 48.9574C35.3455 49.0096 35.3465 49.0593 35.3465 49.0702C35.3465 49.3659 35.2057 49.6478 34.9377 49.8461L34.9355 49.8478C34.2846 50.3409 32.6871 51.216 29.5117 51.2283H29.5117H29.5115H29.5114H29.5113H29.5111H29.511H29.5108H29.5107H29.5105H29.5104H29.5103H29.5101H29.51H29.5098H29.5097H29.5096H29.5094H29.5093H29.5091H29.509H29.5088H29.5087H29.5086H29.5084H29.5083H29.5081H29.508H29.5078H29.5077H29.5076H29.5074H29.5073H29.5071H29.507H29.5068H29.5067H29.5066H29.5064H29.5063H29.5061H29.506H29.5059H29.5057H29.5056H29.5054H29.5053H29.5051H29.505H29.5049H29.5047H29.5046H29.5044H29.5043H29.5041H29.504H29.5039H29.5037H29.5036H29.5034H29.5033H29.5031H29.503H29.5029H29.5027H29.5026H29.5024H29.5023H29.5022H29.502H29.5019H29.5017H29.5016H29.5014H29.5013H29.5012H29.501H29.5009H29.5007H29.5006H29.5004H29.5003H29.5002H29.5H29.4999H29.4997H29.4996H29.4994H29.4993H29.4992H29.499H29.4989H29.4987H29.4986H29.4985H29.4983H29.4982H29.498H29.4979H29.4977H29.4976H29.4975H29.4973H29.4972H29.497H29.4969H29.4967H29.4966H29.4965H29.4963H29.4962H29.496H29.4959H29.4957H29.4956H29.4955H29.4953H29.4952H29.495H29.4949H29.4948H29.4946H29.4945H29.4943H29.4942H29.494H29.4939H29.4938H29.4936H29.4935H29.4933H29.4932H29.493H29.4929H29.4928H29.4926H29.4925H29.4923H29.4922H29.492H29.4919H29.4918H29.4916H29.4915H29.4913H29.4912H29.4911H29.4909H29.4908H29.4906H29.4905H29.4903H29.4902H29.4901H29.4899H29.4898H29.4896H29.4895H29.4893H29.4892H29.4891H29.4889H29.4888H29.4886H29.4885H29.4883H29.4882H29.4881H29.4879H29.4878H29.4876H29.4875H29.4874H29.4872H29.4871H29.4869H29.4868H29.4866H29.4865H29.4864H29.4862H29.4861H29.4859H29.4858H29.4856H29.4855H29.4854H29.4852H29.4851H29.4849H29.4848H29.4846H29.4845H29.4844H29.4842H29.4841H29.4839H29.4838H29.4837H29.4835H29.4834H29.4832H29.4831H29.4829H29.4828H29.4827H29.4825H29.4824H29.4822H29.4821H29.4819H29.4818H29.4817H29.4815H29.4814H29.4812H29.4811H29.4809H29.4808H29.4807H29.4805H29.4804H29.4802H29.4801H29.48H29.4798H29.4797H29.4795H29.4794H29.4792H29.4791H29.479H29.4788H29.4787H29.4785H29.4784H29.4782H29.4781H29.478H29.4778H29.4777H29.4775H29.4774H29.4772H29.4771H29.477H29.4768H29.4767H29.4765H29.4764H29.4763H29.4761H29.476H29.4758H29.4757H29.4755H29.4754H29.4753H29.4751H29.475H29.4748H29.4747H29.4745H29.4744H29.4743H29.4741H29.474H29.4738H29.4737H29.4735H29.4734H29.4733H29.4731H29.473H29.4728H29.4727H29.4726H29.4724H29.4723H29.4721H29.472H29.4718H29.4717H29.4716H29.4714H29.4713H29.4711H29.471H29.4708H29.4707H29.4706H29.4704H29.4703H29.4701H29.47H29.4698H29.4697H29.4696H29.4694H29.4693H29.4691H29.469H29.4689H29.4687H29.4686H29.4684H29.4683H29.4681H29.468H29.4679H29.4677H29.4676H29.4674H29.4673H29.4671H29.467H29.4669H29.4667H29.4666H29.4664H29.4663H29.4661H29.466H29.4659H29.4657H29.4656H29.4654H29.4653H29.4652H29.465H29.4649H29.4647H29.4646H29.4644H29.4643H29.4642H29.464H29.4639H29.4637H29.4636H29.4634H29.4633H29.4632H29.463H29.4629H29.4627H29.4626H29.4624H29.4623H29.4622H29.462H29.4619H29.4617H29.4616H29.4615H29.4613H29.4612H29.461H29.4609H29.4607H29.4606H29.4605H29.4603H29.4602H29.46H29.4599H29.4597H29.4596H29.4595H29.4593H29.4592H29.459H29.4589H29.4587H29.4586H29.4585H29.4583H29.4582H29.458H29.4579H29.4578H29.4576H29.4575H29.4573H29.4572H29.457H29.4569H29.4568H29.4566H29.4565H29.4563H29.4562H29.456H29.4559H29.4558H29.4556H29.4555H29.4553H29.4552H29.455H29.4549H29.4548H29.4546H29.4545H29.4543H29.4542H29.4541H29.4539H29.4538H29.4536H29.4535H29.4533H29.4532H29.4531H29.4529H29.4528H29.4526H29.4525H29.4523H29.4522H29.4521H29.4519H29.4518H29.4516H29.4515H29.4513H29.4512H29.4511H29.4509H29.4508H29.4506H29.4505H29.4504H29.4502H29.4501H29.4499H29.4498H29.4496H29.4495H29.4494H29.4492H29.4491H29.4489H29.4488H29.4486H29.4485H29.4484H29.4482H29.4481H29.4479H29.4478H29.4476H29.4475H29.4474H29.4472H29.4471H29.4469H29.4468H29.4467H29.4465H29.4464H29.4462H29.4461H29.4459H29.4458H29.4457H29.4455H29.4454H29.4452H29.4451H29.4449H29.4448H29.4447H29.4445H29.4444H29.4442H29.4441H29.4439H29.4438H29.4437H29.4435H29.4434H29.4432H29.4431H29.443H29.4428H29.4427H29.4425H29.4424H29.4422H29.4421H29.442H29.4418H29.4417H29.4415H29.4414H29.4412H29.4411H29.441H29.4408H29.4407H29.4405H29.4404H29.4402H29.4401H29.44H29.4398ZM39.5197 33.6685L39.519 33.6718L42.2687 27.1593L39.5578 33.5546C39.5359 33.6017 39.5252 33.646 39.5197 33.6685Z" fill="#BDBDBD" stroke="#BDBDBD" stroke-width="0.5"/>
</svg>
