<svg width="76" height="23" viewBox="0 0 76 23" fill="none" xmlns="http://www.w3.org/2000/svg">
<rect width="22.2924" height="23.0001" rx="3" fill="#74828A"/>
<path d="M11.4551 8.234H10.2891L8.69405 12.821C8.43005 13.624 8.22105 14.339 8.12205 14.713H8.10005C7.99005 14.306 7.77005 13.536 7.52805 12.799L5.96605 8.234H4.71205L7.46205 16.022H8.69405L11.4551 8.234ZM16.997 16V15.021H13.598C13.686 14.361 14.522 13.591 15.094 13.096C15.985 12.282 16.832 11.6 16.832 10.302C16.832 8.773 15.655 8.025 14.434 8.025C13.411 8.025 12.74 8.366 12.091 9.081L12.696 9.873C12.982 9.488 13.477 9.015 14.236 9.015C15.017 9.015 15.677 9.554 15.677 10.423C15.677 11.281 15.017 11.919 14.423 12.447C13.389 13.36 12.487 14.24 12.377 15.23V16H16.997Z" fill="#F2F2F2"/>
<path d="M37.0132 3.234H35.8472L34.2522 7.821C33.9882 8.624 33.7792 9.339 33.6802 9.713H33.6582C33.5482 9.306 33.3282 8.536 33.0862 7.799L31.5242 3.234H30.2702L33.0202 11.022H34.2522L37.0132 3.234ZM41.9622 10.967L41.8962 10.208C41.8192 10.23 41.7092 10.252 41.6322 10.252C41.4342 10.252 41.3792 10.098 41.3792 9.878V6.941C41.3792 5.445 40.3562 4.983 39.3772 4.983C38.4972 4.983 37.8262 5.192 37.2542 5.654L37.6832 6.457C38.0022 6.149 38.4862 5.863 39.1462 5.863C40.0262 5.863 40.3672 6.358 40.3672 6.941V7.469C40.3672 7.634 40.2792 7.645 39.8612 7.645C38.5852 7.645 36.9902 7.942 36.9902 9.526C36.9902 10.472 37.7052 11.165 38.6622 11.165C39.4542 11.165 39.9932 10.824 40.4442 10.23C40.4882 10.703 40.6642 11.088 41.2362 11.088C41.5002 11.088 41.7862 11.022 41.9622 10.967ZM40.3672 9.141C40.3672 9.427 40.2902 9.603 40.1252 9.801C39.8502 10.12 39.4762 10.307 39.0032 10.307C38.4312 10.307 38.0352 9.933 38.0352 9.427C38.0352 8.514 39.0692 8.382 39.8062 8.382C39.9822 8.382 40.1692 8.393 40.3672 8.393V9.141ZM46.3473 5.115C46.2263 5.071 46.0173 5.016 45.8193 5.016C45.0933 5.016 44.6533 5.544 44.3123 6.083C44.3343 5.445 44.1033 5.071 43.5313 5.071C43.2673 5.071 42.9813 5.137 42.8053 5.192L42.8823 5.951C42.9483 5.929 43.0583 5.907 43.1353 5.907C43.3333 5.907 43.3993 6.061 43.3993 6.303V11H44.4553V7.293C44.4553 7.007 44.4663 6.798 44.6643 6.589C44.8953 6.314 45.1373 6.116 45.5883 6.116C45.7753 6.116 45.9513 6.193 46.0613 6.248L46.3473 5.115ZM48.7323 3.443C48.7323 3.058 48.4903 2.783 48.0943 2.783C47.6983 2.783 47.4453 3.058 47.4453 3.443C47.4453 3.817 47.6983 4.092 48.0943 4.092C48.4903 4.092 48.7323 3.817 48.7323 3.443ZM49.1943 10.978L49.1283 10.219C49.0513 10.241 48.9413 10.263 48.8643 10.263C48.6553 10.263 48.6113 10.109 48.6113 9.889V5.159H47.5553V10.164C47.5553 10.78 47.8963 11.099 48.5013 11.099C48.7653 11.099 49.0403 11.033 49.1943 10.978ZM55.0569 10.967L54.9909 10.208C54.9139 10.23 54.8039 10.252 54.7269 10.252C54.5289 10.252 54.4739 10.098 54.4739 9.878V6.941C54.4739 5.445 53.4509 4.983 52.4719 4.983C51.5919 4.983 50.9209 5.192 50.3489 5.654L50.7779 6.457C51.0969 6.149 51.5809 5.863 52.2409 5.863C53.1209 5.863 53.4619 6.358 53.4619 6.941V7.469C53.4619 7.634 53.3739 7.645 52.9559 7.645C51.6799 7.645 50.0849 7.942 50.0849 9.526C50.0849 10.472 50.7999 11.165 51.7569 11.165C52.5489 11.165 53.0879 10.824 53.5389 10.23C53.5829 10.703 53.7589 11.088 54.3309 11.088C54.5949 11.088 54.8809 11.022 55.0569 10.967ZM53.4619 9.141C53.4619 9.427 53.3849 9.603 53.2199 9.801C52.9449 10.12 52.5709 10.307 52.0979 10.307C51.5259 10.307 51.1299 9.933 51.1299 9.427C51.1299 8.514 52.1639 8.382 52.9009 8.382C53.0769 8.382 53.2639 8.393 53.4619 8.393V9.141ZM58.0121 13.288C58.6281 13.288 59.1011 12.914 59.1011 12.276C59.1011 11.858 58.9251 11.506 58.6501 11.176C59.2551 11.132 59.8491 10.901 60.1681 10.593L59.7941 9.757C59.4971 10.01 59.0571 10.219 58.5841 10.219C57.6051 10.219 56.9011 9.339 56.9011 8.129C56.9011 6.985 57.3961 5.962 58.5181 5.962C59.0901 5.962 59.5081 6.248 59.7281 6.457L60.1681 5.533C59.7831 5.192 59.1781 4.983 58.4631 4.983C56.5711 4.983 55.8011 6.589 55.8011 8.151C55.8011 9.669 56.5491 10.934 58.0121 11.143C58.2651 11.44 58.4081 11.737 58.4081 12.001C58.4081 12.364 58.1771 12.562 57.8361 12.562C57.6381 12.562 57.4511 12.496 57.2861 12.397L57.1211 13.046C57.3851 13.211 57.6711 13.288 58.0121 13.288ZM65.8099 10.967L65.7439 10.208C65.6669 10.23 65.5569 10.252 65.4799 10.252C65.2819 10.252 65.2269 10.098 65.2269 9.878V6.941C65.2269 5.445 64.2039 4.983 63.2249 4.983C62.3449 4.983 61.6739 5.192 61.1019 5.654L61.5309 6.457C61.8499 6.149 62.3339 5.863 62.9939 5.863C63.8739 5.863 64.2149 6.358 64.2149 6.941V7.469C64.2149 7.634 64.1269 7.645 63.7089 7.645C62.4329 7.645 60.8379 7.942 60.8379 9.526C60.8379 10.472 61.5529 11.165 62.5099 11.165C63.3019 11.165 63.8409 10.824 64.2919 10.23C64.3359 10.703 64.5119 11.088 65.0839 11.088C65.3479 11.088 65.6339 11.022 65.8099 10.967ZM64.2149 9.141C64.2149 9.427 64.1379 9.603 63.9729 9.801C63.6979 10.12 63.3239 10.307 62.8509 10.307C62.2789 10.307 61.8829 9.933 61.8829 9.427C61.8829 8.514 62.9169 8.382 63.6539 8.382C63.8299 8.382 64.0169 8.393 64.2149 8.393V9.141ZM65.1609 2.948H64.4679C64.4129 3.201 64.2809 3.575 63.9289 3.575C63.4559 3.575 62.9609 3.025 62.3999 3.025C61.6519 3.025 61.3879 3.762 61.2889 4.411H61.9819C62.0259 4.158 62.1689 3.784 62.5099 3.784C62.9829 3.784 63.4779 4.334 64.0389 4.334C64.7869 4.334 65.0619 3.597 65.1609 2.948ZM71.878 8.074C71.878 6.468 71.086 4.961 69.238 4.961C67.423 4.961 66.554 6.457 66.554 8.063C66.554 9.68 67.346 11.209 69.194 11.209C71.02 11.209 71.878 9.669 71.878 8.074ZM70.778 8.085C70.778 9.042 70.415 10.307 69.194 10.307C67.973 10.307 67.654 9.031 67.654 8.063C67.654 7.084 68.039 5.863 69.238 5.863C70.459 5.863 70.778 7.117 70.778 8.085ZM36.1002 21.978L36.0232 21.219C35.9462 21.241 35.8362 21.263 35.7702 21.263C35.5612 21.263 35.5062 21.109 35.5062 20.889V13.86H34.4502V16.434C34.1642 16.115 33.6362 15.983 33.1632 15.983C31.4142 15.983 30.6112 17.501 30.6112 19.074C30.6112 20.636 31.3482 22.176 32.8112 22.176C33.6252 22.176 34.1312 21.703 34.5272 21.098C34.5272 21.681 34.6922 22.099 35.3742 22.099C35.6382 22.099 35.9132 22.033 36.1002 21.978ZM34.4502 19.954C34.4502 20.251 34.4172 20.416 34.1972 20.68C33.9772 20.922 33.6472 21.197 33.1632 21.197C32.1072 21.197 31.7112 20.009 31.7112 18.898C31.7112 17.809 32.1402 16.83 33.3062 16.83C34.0872 16.83 34.4502 17.16 34.4502 17.633V19.954ZM41.907 18.469C41.896 16.984 41.071 15.983 39.63 15.983C37.848 15.983 37.078 17.611 37.078 19.118C37.078 20.867 38.035 22.187 39.85 22.187C40.631 22.187 41.357 21.923 41.797 21.615L41.456 20.779C41.126 21.032 40.576 21.263 40.048 21.263C38.871 21.263 38.178 20.493 38.134 19.426C38.134 19.382 38.123 19.349 38.123 19.305C39.52 19.294 40.763 18.997 41.907 18.469ZM40.895 17.941C40.07 18.337 39.179 18.48 38.112 18.502C38.156 17.6 38.596 16.808 39.575 16.808C40.334 16.808 40.84 17.27 40.895 17.941ZM51.9237 21.483L51.5277 20.515C51.1207 20.856 50.5047 21.109 49.8227 21.109C48.3267 21.109 47.2047 19.954 47.2047 18.15C47.2047 16.302 48.1617 15.103 49.7237 15.103C50.4167 15.103 50.9997 15.334 51.4507 15.686L51.9017 14.663C51.3407 14.256 50.5927 14.025 49.6797 14.025C47.2157 14.025 45.9947 16.016 45.9947 18.205C45.9947 20.68 47.5787 22.187 49.6907 22.187C50.5047 22.187 51.3407 21.912 51.9237 21.483ZM57.8057 19.074C57.8057 17.468 57.0137 15.961 55.1657 15.961C53.3507 15.961 52.4817 17.457 52.4817 19.063C52.4817 20.68 53.2737 22.209 55.1217 22.209C56.9477 22.209 57.8057 20.669 57.8057 19.074ZM56.7057 19.085C56.7057 20.042 56.3427 21.307 55.1217 21.307C53.9007 21.307 53.5817 20.031 53.5817 19.063C53.5817 18.084 53.9667 16.863 55.1657 16.863C56.3867 16.863 56.7057 18.117 56.7057 19.085ZM62.2995 16.115C62.1785 16.071 61.9695 16.016 61.7715 16.016C61.0455 16.016 60.6055 16.544 60.2645 17.083C60.2865 16.445 60.0555 16.071 59.4835 16.071C59.2195 16.071 58.9335 16.137 58.7575 16.192L58.8345 16.951C58.9005 16.929 59.0105 16.907 59.0875 16.907C59.2855 16.907 59.3515 17.061 59.3515 17.303V22H60.4075V18.293C60.4075 18.007 60.4185 17.798 60.6165 17.589C60.8475 17.314 61.0895 17.116 61.5405 17.116C61.7275 17.116 61.9035 17.193 62.0135 17.248L62.2995 16.115Z" fill="#74828A"/>
</svg>
