<svg width="76" height="23" viewBox="0 0 76 23" fill="none" xmlns="http://www.w3.org/2000/svg">
<rect x="0.0078125" width="22.2924" height="23.0001" rx="3" fill="#74828A"/>
<path d="M6.55176 8.89209V9.17139C7.11572 9.2251 7.19629 9.27344 7.19629 9.94482V12.9419C7.19629 13.6187 7.11572 13.6616 6.50342 13.7207V14H9.01709V13.7207C8.31885 13.6616 8.24365 13.6187 8.24365 12.9419V11.873L8.80762 12.0073C8.89355 12.0073 9.02246 12.0073 9.15137 11.9912C9.97314 11.8892 10.7681 11.4165 10.7681 10.353C10.7681 9.84814 10.5586 9.46143 10.188 9.19824C9.87646 8.97803 9.41455 8.89209 8.7915 8.89209H6.55176ZM8.24365 9.52588C8.24365 9.40771 8.26514 9.32715 8.31348 9.28418C8.36182 9.24121 8.46387 9.20361 8.61963 9.20361C9.11914 9.20361 9.62939 9.49365 9.62939 10.3691C9.62939 11.4272 8.99561 11.6367 8.68945 11.6367C8.51758 11.6367 8.33496 11.5991 8.24365 11.5615V9.52588ZM14.2002 11.2285C14.7803 11.1211 15.4624 10.8257 15.4624 10.063C15.4624 9.67627 15.2798 9.354 14.9844 9.16602C14.6782 8.96729 14.2808 8.89209 13.6685 8.89209H11.3213V9.17139C11.8853 9.2251 11.9658 9.27344 11.9658 9.94482V12.9419C11.9658 13.6187 11.8853 13.6616 11.2676 13.7207V14H13.3193C13.9907 14 14.5977 13.8818 15.0005 13.6616C15.4624 13.4199 15.7524 13.0063 15.7524 12.4907C15.7524 11.7388 15.1401 11.3735 14.2002 11.2715V11.2285ZM13.0132 11.1426V9.66016C13.0132 9.49902 13.0293 9.38623 13.083 9.32715C13.1313 9.28418 13.271 9.2251 13.4482 9.2251C13.8887 9.2251 14.3184 9.49365 14.3184 10.208C14.3184 10.8472 13.9639 11.1426 13.1904 11.1426H13.0132ZM13.0132 11.4648H13.1689C14.0981 11.4648 14.5708 11.8408 14.5708 12.5767C14.5708 13.334 14.0605 13.6562 13.6147 13.6616C13.1743 13.6724 13.0132 13.5059 13.0132 12.9204V11.4648Z" fill="#F2F2F2"/>
<path d="M36.2542 5.588C36.2542 3.663 34.7142 3.234 33.0862 3.234H31.1282V11H32.3052V8.129H33.1082C34.5382 8.129 36.2542 7.711 36.2542 5.588ZM35.0662 5.665C35.0662 6.831 34.1312 7.128 33.1082 7.128H32.3052V4.235H33.1522C33.9992 4.235 35.0662 4.411 35.0662 5.665ZM41.6829 10.967L41.6169 10.208C41.5399 10.23 41.4299 10.252 41.3529 10.252C41.1549 10.252 41.0999 10.098 41.0999 9.878V6.941C41.0999 5.445 40.0769 4.983 39.0979 4.983C38.2179 4.983 37.5469 5.192 36.9749 5.654L37.4039 6.457C37.7229 6.149 38.2069 5.863 38.8669 5.863C39.7469 5.863 40.0879 6.358 40.0879 6.941V7.469C40.0879 7.634 39.9999 7.645 39.5819 7.645C38.3059 7.645 36.7109 7.942 36.7109 9.526C36.7109 10.472 37.4259 11.165 38.3829 11.165C39.1749 11.165 39.7139 10.824 40.1649 10.23C40.2089 10.703 40.3849 11.088 40.9569 11.088C41.2209 11.088 41.5069 11.022 41.6829 10.967ZM40.0879 9.141C40.0879 9.427 40.0109 9.603 39.8459 9.801C39.5709 10.12 39.1969 10.307 38.7239 10.307C38.1519 10.307 37.7559 9.933 37.7559 9.427C37.7559 8.514 38.7899 8.382 39.5269 8.382C39.7029 8.382 39.8899 8.393 40.0879 8.393V9.141ZM46.211 9.361C46.211 8.404 45.65 7.975 44.836 7.667L44.297 7.458C43.835 7.282 43.516 7.062 43.516 6.655C43.516 6.259 43.813 5.863 44.528 5.863C44.935 5.863 45.364 6.017 45.683 6.292L46.068 5.467C45.76 5.214 45.243 4.983 44.572 4.983C43.395 4.983 42.526 5.775 42.526 6.809C42.526 7.656 43.021 8.074 43.736 8.371L44.275 8.58C44.847 8.811 45.21 8.998 45.21 9.493C45.21 10.109 44.594 10.318 44.11 10.318C43.626 10.318 43.131 10.142 42.779 9.834L42.394 10.659C42.746 10.956 43.362 11.187 44.022 11.187C45.287 11.187 46.211 10.461 46.211 9.361ZM50.5091 11L50.3551 10.153C50.2011 10.23 49.9811 10.296 49.7061 10.296C49.1891 10.296 48.8591 10.043 48.8591 9.427V6.116H50.3771V5.269H48.8591V3.663L47.8031 4.026V5.269H46.8351V6.116H47.8031V9.559C47.8031 10.527 48.3201 11.187 49.3651 11.187C49.7941 11.187 50.2451 11.11 50.5091 11ZM56.056 10.967L55.99 10.208C55.913 10.23 55.803 10.252 55.726 10.252C55.528 10.252 55.473 10.098 55.473 9.878V6.941C55.473 5.445 54.45 4.983 53.471 4.983C52.591 4.983 51.92 5.192 51.348 5.654L51.777 6.457C52.096 6.149 52.58 5.863 53.24 5.863C54.12 5.863 54.461 6.358 54.461 6.941V7.469C54.461 7.634 54.373 7.645 53.955 7.645C52.679 7.645 51.084 7.942 51.084 9.526C51.084 10.472 51.799 11.165 52.756 11.165C53.548 11.165 54.087 10.824 54.538 10.23C54.582 10.703 54.758 11.088 55.33 11.088C55.594 11.088 55.88 11.022 56.056 10.967ZM54.461 9.141C54.461 9.427 54.384 9.603 54.219 9.801C53.944 10.12 53.57 10.307 53.097 10.307C52.525 10.307 52.129 9.933 52.129 9.427C52.129 8.514 53.163 8.382 53.9 8.382C54.076 8.382 54.263 8.393 54.461 8.393V9.141ZM36.5842 19.602C36.5842 18.469 35.7812 17.853 35.0332 17.743V17.721C35.7042 17.567 36.3312 16.951 36.3312 16.159C36.3312 14.542 34.8022 14.234 33.5372 14.234H31.1392V22H33.4382C34.9012 22 36.5842 21.549 36.5842 19.602ZM35.1872 16.302C35.1872 17.138 34.4282 17.402 33.5152 17.402H32.3052V15.213H33.3172C34.2852 15.213 35.1872 15.378 35.1872 16.302ZM35.3852 19.58C35.3852 20.757 34.3292 21.021 33.3942 21.021H32.3052V18.348H33.5482C34.4612 18.348 35.3852 18.601 35.3852 19.58ZM41.2341 16.115C41.1131 16.071 40.9041 16.016 40.7061 16.016C39.9801 16.016 39.5401 16.544 39.1991 17.083C39.2211 16.445 38.9901 16.071 38.4181 16.071C38.1541 16.071 37.8681 16.137 37.6921 16.192L37.7691 16.951C37.8351 16.929 37.9451 16.907 38.0221 16.907C38.2201 16.907 38.2861 17.061 38.2861 17.303V22H39.3421V18.293C39.3421 18.007 39.3531 17.798 39.5511 17.589C39.7821 17.314 40.0241 17.116 40.4751 17.116C40.6621 17.116 40.8381 17.193 40.9481 17.248L41.2341 16.115ZM46.6136 21.967L46.5476 21.208C46.4706 21.23 46.3606 21.252 46.2836 21.252C46.0856 21.252 46.0306 21.098 46.0306 20.878V17.941C46.0306 16.445 45.0076 15.983 44.0286 15.983C43.1486 15.983 42.4776 16.192 41.9056 16.654L42.3346 17.457C42.6536 17.149 43.1376 16.863 43.7976 16.863C44.6776 16.863 45.0186 17.358 45.0186 17.941V18.469C45.0186 18.634 44.9306 18.645 44.5126 18.645C43.2366 18.645 41.6416 18.942 41.6416 20.526C41.6416 21.472 42.3566 22.165 43.3136 22.165C44.1056 22.165 44.6446 21.824 45.0956 21.23C45.1396 21.703 45.3156 22.088 45.8876 22.088C46.1516 22.088 46.4376 22.022 46.6136 21.967ZM45.0186 20.141C45.0186 20.427 44.9416 20.603 44.7766 20.801C44.5016 21.12 44.1276 21.307 43.6546 21.307C43.0826 21.307 42.6866 20.933 42.6866 20.427C42.6866 19.514 43.7206 19.382 44.4576 19.382C44.6336 19.382 44.8206 19.393 45.0186 19.393V20.141ZM52.5387 22V17.952C52.5387 16.742 51.8567 15.983 50.6797 15.983C49.8437 15.983 49.2497 16.412 48.8207 17.05V16.159H47.8307V22H48.8867V18.249C48.8867 17.897 48.9197 17.776 49.1617 17.512C49.4367 17.182 49.8437 16.973 50.3057 16.973C51.0977 16.973 51.4827 17.424 51.4827 18.161V22H52.5387ZM58.2023 21.593L57.8283 20.757C57.5313 21.01 57.0913 21.219 56.6183 21.219C55.6393 21.219 54.9353 20.339 54.9353 19.129C54.9353 17.985 55.4303 16.962 56.5523 16.962C57.1243 16.962 57.5423 17.248 57.7623 17.457L58.2023 16.533C57.8173 16.192 57.2123 15.983 56.4973 15.983C54.6053 15.983 53.8353 17.589 53.8353 19.151C53.8353 20.823 54.7593 22.176 56.4973 22.176C57.1683 22.176 57.8613 21.912 58.2023 21.593ZM63.844 21.967L63.778 21.208C63.701 21.23 63.591 21.252 63.514 21.252C63.316 21.252 63.261 21.098 63.261 20.878V17.941C63.261 16.445 62.238 15.983 61.259 15.983C60.379 15.983 59.708 16.192 59.136 16.654L59.565 17.457C59.884 17.149 60.368 16.863 61.028 16.863C61.908 16.863 62.249 17.358 62.249 17.941V18.469C62.249 18.634 62.161 18.645 61.743 18.645C60.467 18.645 58.872 18.942 58.872 20.526C58.872 21.472 59.587 22.165 60.544 22.165C61.336 22.165 61.875 21.824 62.326 21.23C62.37 21.703 62.546 22.088 63.118 22.088C63.382 22.088 63.668 22.022 63.844 21.967ZM62.249 20.141C62.249 20.427 62.172 20.603 62.007 20.801C61.732 21.12 61.358 21.307 60.885 21.307C60.313 21.307 59.917 20.933 59.917 20.427C59.917 19.514 60.951 19.382 61.688 19.382C61.864 19.382 62.051 19.393 62.249 19.393V20.141Z" fill="#74828A"/>
</svg>
