<svg width="24" height="24" viewBox="0 0 24 24" fill="none" xmlns="http://www.w3.org/2000/svg">
<rect x="21" y="10.2588" width="2" height="2.74104" fill="#DB3617"/>
<path d="M21.625 10.2517H5.3175L10.3088 4.25672C10.5421 3.97592 10.6544 3.61391 10.6209 3.25033C10.5874 2.88674 10.4108 2.55136 10.13 2.31797C9.8492 2.08458 9.48719 1.9723 9.1236 2.00582C8.76002 2.03934 8.42464 2.21592 8.19125 2.49672L1.31625 10.7467C1.27 10.8123 1.22863 10.8813 1.1925 10.953C1.1925 11.0217 1.1925 11.063 1.09625 11.1317C1.03393 11.2894 1.00129 11.4572 1 11.6267C1.00129 11.7962 1.03393 11.9641 1.09625 12.1217C1.09625 12.1905 1.09625 12.2317 1.1925 12.3005C1.22863 12.3722 1.27 12.4411 1.31625 12.5067L8.19125 20.7567C8.32053 20.9119 8.48242 21.0368 8.66541 21.1223C8.8484 21.2079 9.048 21.252 9.25 21.2517C9.57127 21.2523 9.88262 21.1405 10.13 20.9355C10.2692 20.82 10.3843 20.6783 10.4687 20.5183C10.553 20.3583 10.605 20.1833 10.6216 20.0032C10.6382 19.8231 10.6191 19.6415 10.5654 19.4688C10.5118 19.2961 10.4245 19.1357 10.3088 18.9967L5.3175 13.0017H21.625C21.9897 13.0017 22.3394 12.8569 22.5973 12.599C22.8551 12.3411 23 11.9914 23 11.6267C23 11.262 22.8551 10.9123 22.5973 10.6545C22.3394 10.3966 21.9897 10.2517 21.625 10.2517Z" fill="#DB3617"/>
</svg>
