<svg width="230" height="41" viewBox="0 0 230 41" fill="none" xmlns="http://www.w3.org/2000/svg">
<path fill-rule="evenodd" clip-rule="evenodd" d="M182.425 38.9543C183.411 38.9543 184.244 38.6735 184.911 38.2416L184.618 37.6584C184.001 37.95 183.476 38.2146 182.75 38.1984C181.472 38.1822 180.822 36.735 180.822 35.52C180.822 34.2457 181.423 32.7175 182.642 32.6581C183.167 32.6257 183.8 32.8093 184.261 33.0253L184.586 32.426C183.519 31.7618 182.084 31.7186 181.147 32.3666C180.205 33.0145 179.68 34.2565 179.68 35.52C179.68 37.2156 180.698 38.9435 182.425 38.9543ZM191.262 38.1984L191.002 37.6584C190.434 37.9338 189.876 38.1984 189.107 38.2146C187.84 38.2632 186.947 37.0752 187.071 35.3203H191.208C191.176 33.2413 190.483 31.9508 188.598 31.9508C186.622 31.9508 185.896 33.7813 185.885 35.5524C185.885 36.6918 186.335 37.7502 187.071 38.3819C187.873 39.0623 189.14 39.0461 190.109 38.7653C190.553 38.6303 190.91 38.4305 191.262 38.1984ZM190.06 34.6615H187.098C187.174 33.6949 187.558 32.6473 188.641 32.6473C189.643 32.6473 190.076 33.6949 190.076 34.6777L190.06 34.6615ZM195.675 32.7553C195.827 32.7553 196.092 32.8039 196.309 32.8471C196.434 32.5717 196.618 32.2154 196.758 31.94C195.816 31.7726 195.172 31.9238 194.49 32.1722C193.856 32.3882 193.304 32.7553 192.887 33.2197V38.8247H194.013V33.3709C194.414 33.0307 194.923 32.7553 195.665 32.7553H195.675ZM202.818 37.7826V33.8893C202.818 32.6419 201.708 31.9022 200.581 31.9022C199.655 31.9022 199.038 32.0534 198.237 32.4854L198.513 33.1333C199.114 32.8255 199.607 32.6581 200.289 32.6581C201.047 32.6581 201.756 33.1819 201.756 33.9487V34.6129C201.139 34.6129 200.663 34.6129 199.921 34.6129C198.627 34.5967 197.609 35.3959 197.592 36.708C197.56 37.9392 198.567 38.9111 199.785 38.9435C201.123 38.9543 202.173 38.4305 202.818 37.7826ZM201.724 37.6314C201.524 37.8474 200.923 38.1984 200.273 38.1876C199.379 38.1876 198.729 37.4478 198.729 36.681C198.729 35.8332 199.379 35.3419 200.24 35.3419C200.798 35.3257 201.367 35.3257 201.724 35.3257V37.6314ZM213.328 33.7381C213.328 32.6149 212.261 31.9076 211.243 31.9076C210.35 31.9238 209.716 32.156 209.04 32.5717C208.639 32.1398 208.022 31.9076 207.404 31.9076C206.137 31.9238 205.52 32.3072 204.534 33.0307V38.8193H205.661V33.1711C205.828 32.9875 206.294 32.6959 206.711 32.6797C207.87 32.6041 208.363 33.2035 208.363 34.2349V38.8247H209.489V33.6679C209.489 33.5005 209.473 33.3007 209.429 33.1603C209.689 32.9605 210.171 32.6851 210.572 32.6689C211.698 32.6203 212.191 33.2089 212.191 34.2403L212.207 38.8301H213.334V33.7381H213.328ZM215.516 38.8193H216.626V31.9076L215.516 32.2748V38.8193ZM215.332 29.7368C215.332 30.1364 215.657 30.4604 216.057 30.4604C216.474 30.4604 216.799 30.1364 216.799 29.7368C216.799 29.3211 216.474 28.9971 216.074 28.9971C215.657 28.9971 215.332 29.3211 215.332 29.7206V29.7368ZM221.104 38.9543C222.09 38.9543 222.923 38.6735 223.59 38.2416L223.297 37.6584C222.68 37.95 222.155 38.2146 221.429 38.1984C220.151 38.1822 219.501 36.735 219.501 35.52C219.501 34.2457 220.102 32.7175 221.321 32.6581C221.846 32.6257 222.479 32.8093 222.94 33.0253L223.265 32.426C222.198 31.7618 220.763 31.7186 219.826 32.3666C218.884 33.0145 218.359 34.2565 218.359 35.52C218.359 37.2156 219.377 38.9435 221.104 38.9543ZM226.595 39.0029C227.889 39.0029 229.264 38.3226 229.281 36.8754C229.281 36.2598 229.004 35.8602 228.631 35.5686C228.273 35.2933 227.846 35.1367 227.429 34.9693C226.996 34.8019 226.535 34.6129 226.194 34.4617C225.837 34.3105 225.609 34.0945 225.609 33.7057C225.626 32.9821 226.335 32.6419 226.985 32.6419C227.477 32.6581 227.954 32.7931 228.468 33.0901L228.885 32.426C228.268 32.0858 227.618 31.859 226.925 31.859C225.723 31.859 224.564 32.5663 224.564 33.8569C224.564 34.4887 224.84 34.8721 225.214 35.1313C225.571 35.4066 225.999 35.5632 226.416 35.7144C226.633 35.7738 226.849 35.8656 227.05 35.9466C227.559 36.1464 228.16 36.3462 228.176 37.0104C228.208 37.8582 227.326 38.193 226.589 38.193C225.988 38.1768 225.311 37.9446 224.846 37.5936L224.445 38.2416C225.024 38.6897 225.81 39.0029 226.595 39.0029Z" fill="#F2F2F2"/>
<path fill-rule="evenodd" clip-rule="evenodd" d="M112.872 25.0334C113.663 24.2504 114.21 23.3163 114.524 22.3227L113.776 23.0679C112.26 24.5798 109.796 24.5798 108.275 23.0679C108.259 23.0517 108.253 23.0355 108.232 23.0247C106.71 21.5127 106.71 19.0504 108.232 17.5385C109.753 16.0211 112.212 16.0211 113.733 17.5385L114.562 18.3592C114.253 17.3225 113.69 16.3505 112.872 15.5351C110.235 12.9108 105.974 12.9108 103.342 15.5351L101.457 17.4143H101.452L98.5117 20.3518L100.629 22.4685L103.277 25.109C105.903 27.7279 110.17 27.7279 112.802 25.109C112.829 25.082 112.851 25.055 112.872 25.028V25.0334Z" fill="#F2F2F2"/>
<path fill-rule="evenodd" clip-rule="evenodd" d="M123.517 26.2322C122.743 25.46 121.828 24.9146 120.848 24.596L121.579 25.325C123.095 26.837 123.095 29.2993 121.579 30.8112C121.562 30.822 121.552 30.8328 121.53 30.8544C120.014 32.3718 117.55 32.3718 116.028 30.8544C114.512 29.3371 114.512 26.8802 116.028 25.3682L116.868 24.5312C115.812 24.8336 114.815 25.4006 113.982 26.2322C111.35 28.8565 111.35 33.1062 113.982 35.7305L115.871 37.6096L115.866 37.615L118.812 40.5525L120.934 38.4412L123.582 35.8007C126.214 33.1818 126.214 28.9267 123.582 26.3024C123.566 26.2808 123.544 26.2646 123.517 26.2322Z" fill="#F2F2F2"/>
<path fill-rule="evenodd" clip-rule="evenodd" d="M123.602 14.3257C122.817 15.1087 121.88 15.6595 120.889 15.9781L121.636 15.2329C123.158 13.7209 123.158 11.2586 121.636 9.74668C121.62 9.73588 121.604 9.72508 121.593 9.70348C120.072 8.18613 117.608 8.18613 116.086 9.70348C114.57 11.2208 114.57 13.6777 116.086 15.1897L116.915 16.0159C115.875 15.7081 114.9 15.1465 114.077 14.3311C111.446 11.7014 111.451 7.45715 114.077 4.82744L115.962 2.9483V2.9375L118.913 0L121.035 2.11133L123.683 4.75184C126.31 7.37076 126.31 11.6258 123.683 14.2501C123.656 14.2771 123.629 14.2933 123.602 14.3203V14.3257Z" fill="#F2F2F2"/>
<path fill-rule="evenodd" clip-rule="evenodd" d="M124.803 24.9527C124.029 24.1805 123.482 23.2626 123.163 22.2906L123.899 23.0196C125.421 24.5369 127.884 24.5369 129.401 23.0196C129.411 23.0088 129.422 22.9926 129.444 22.9764C130.966 21.459 130.966 19.0075 129.444 17.4902C127.922 15.9782 125.459 15.9782 123.942 17.4902L123.098 18.3325C123.401 17.2796 123.969 16.2806 124.803 15.449C127.435 12.8301 131.697 12.8301 134.334 15.449L136.218 17.339L136.223 17.3336L139.169 20.2711L137.052 22.3824H137.057L134.409 25.0229C131.778 27.6472 127.516 27.6472 124.885 25.0229C124.863 25.0013 124.836 24.9743 124.814 24.9473L124.803 24.9527Z" fill="#F2F2F2"/>
<path fill-rule="evenodd" clip-rule="evenodd" d="M118.837 17.895C120.158 17.895 121.225 18.9588 121.225 20.2763C121.225 21.5939 120.158 22.6577 118.837 22.6577C117.516 22.6577 116.449 21.5939 116.449 20.2763C116.449 18.9642 117.521 17.895 118.837 17.895Z" fill="#DB3617"/>
<path fill-rule="evenodd" clip-rule="evenodd" d="M7.45097 11.4959C11.7559 11.4257 13.7052 15.4648 13.7431 20.0438C13.7431 24.0829 11.718 27.8736 7.38058 28.0194C5.60989 28.0194 4.08829 27.474 2.61001 26.5722V35.9193L0 34.9743L0.0379046 14.2336C0 14.2336 2.0631 11.5283 7.41307 11.4581L7.45097 11.4959ZM6.79576 26.1348C10.2667 25.9188 10.6999 22.5278 10.6999 19.8602C10.6999 17.2629 10.2667 13.3697 6.97446 13.2239C4.73267 13.0781 2.92407 14.1256 2.56127 14.4874V24.7633C3.43308 25.3033 5.17128 26.2428 6.79576 26.1348ZM24.5514 13.4399C24.9142 13.4399 25.5261 13.5479 26.0351 13.6559C26.3221 13.0079 26.7607 12.1763 27.0856 11.5283C24.8817 11.1341 23.3601 11.4905 21.7681 12.0683C20.2844 12.5705 18.9848 13.4399 18.0101 14.5198V27.6522H20.6472V14.887C21.5894 14.0932 22.7807 13.4453 24.5135 13.4453H24.5514V13.4399ZM30.4808 27.6522H33.0853V11.4581L30.4808 12.3221V27.6522ZM30.0476 6.3769C30.0476 7.31646 30.8057 8.07244 31.7479 8.07244C32.7225 8.07244 33.486 7.31646 33.486 6.3769C33.486 5.40493 32.728 4.64355 31.7858 4.64355C30.8111 4.64355 30.0476 5.39953 30.0476 6.3391V6.3769ZM58.3244 15.751C58.3244 13.1213 55.8281 11.4581 53.4456 11.4581C51.35 11.4959 49.8663 12.0359 48.2743 13.0079C47.3321 11.9981 45.8863 11.4581 44.4405 11.4581C41.4731 11.4959 40.0273 12.3977 37.7151 14.0878V27.6522H40.3522V14.4172C40.7475 13.9852 41.8359 13.2995 42.8106 13.2617C45.5235 13.0835 46.6769 14.4874 46.6769 16.9011V27.6522H49.3139V15.5674C49.3139 15.1732 49.276 14.7034 49.1677 14.3794C49.7851 13.9096 50.9059 13.2617 51.8427 13.2239C54.4798 13.1159 55.6386 14.4874 55.6386 16.9011L55.6765 27.6522H58.3136V15.751H58.3244ZM62.5156 12.3599V23.3917C62.5156 26.529 65.2664 27.9384 67.649 27.9384C70.7571 27.9384 73.3238 26.9232 75.5331 25.3357V11.7497H72.8961V24.9847C72.0297 25.5624 70.7247 26.2104 69.3168 26.2482C67.0046 26.286 65.2285 24.9145 65.2285 22.5008V11.4581L62.5156 12.3599ZM83.6339 28.0896C86.6717 28.0896 89.8882 26.4966 89.9261 23.1055C89.9261 21.6638 89.2763 20.7242 88.4099 20.0384C87.576 19.3905 86.5634 19.0287 85.5887 18.6345C84.5761 18.2403 83.4931 17.8029 82.6971 17.4465C81.8632 17.0847 81.3217 16.5826 81.3217 15.6808C81.3596 13.9852 83.022 13.1915 84.5382 13.1915C85.697 13.2293 86.8179 13.5533 88.0092 14.239L88.9839 12.6893C87.5381 11.8955 86.0165 11.3555 84.392 11.3555C81.5708 11.3555 78.8579 13.0133 78.8579 16.0426C78.8579 17.5221 79.5077 18.4239 80.3741 19.0341C81.208 19.682 82.2206 20.0438 83.1953 20.4056C83.6989 20.5514 84.2079 20.7674 84.679 20.9456C85.8703 21.4154 87.2836 21.8852 87.3161 23.4349C87.3865 25.4167 85.3288 26.2104 83.5906 26.2104C82.1827 26.1726 80.5907 25.6326 79.5077 24.8065L78.5655 26.3184C79.9463 27.3606 81.7874 28.0896 83.6339 28.0896ZM154.142 27.2904L159.855 12.1817L158.225 11.3879L153.2 24.4393L147.666 11.1719L145.245 12.1817L151.792 28.0518L154.142 27.2904ZM163.58 27.6522H166.185V11.4581L163.58 12.3221V27.6522ZM163.147 6.3769C163.147 7.31646 163.905 8.07244 164.847 8.07244C165.822 8.07244 166.586 7.31646 166.586 6.3769C166.586 5.40493 165.827 4.64355 164.885 4.64355C163.911 4.64355 163.147 5.39953 163.147 6.3391V6.3769ZM171.605 13.5479V23.8939C171.605 26.5992 173.701 28.1922 177.21 27.8682V26.4912C175.363 26.421 174.242 25.9134 174.242 23.8237V13.5479H177.21V11.8523H174.242V6.51729L171.605 7.45686V11.8577H169.797V13.5533H171.605V13.5479ZM180.21 19.4661C180.21 23.8291 182.522 27.9438 187.406 27.9816C192.323 27.9438 194.711 23.8291 194.711 19.4661C194.689 16.9875 193.774 14.698 192.112 13.2077L190.812 15.2434C191.548 16.4314 191.819 17.9919 191.819 19.4661C191.819 22.4954 191.169 26.2428 187.482 26.3508C184.081 26.313 183.107 22.4954 183.107 19.4661H183.069C183.069 16.6203 183.794 13.4831 187.406 13.2671C187.742 13.2833 188.056 13.3319 188.348 13.4075L189.415 11.7335C188.803 11.5661 188.142 11.4689 187.438 11.4635C182.922 11.4959 180.21 15.211 180.21 19.4661ZM205.194 13.4399C205.557 13.4399 206.169 13.5479 206.678 13.6559C206.965 13.0079 207.403 12.1763 207.728 11.5283C205.524 11.1341 204.003 11.4905 202.411 12.0683C200.927 12.5705 199.628 13.4399 198.653 14.5198V27.6522H201.29V14.887C202.232 14.0932 203.423 13.4453 205.156 13.4453H205.194V13.4399ZM211.129 27.6522H213.733V11.4581L211.129 12.3221V27.6522ZM210.69 6.3769C210.69 7.31646 211.448 8.07244 212.391 8.07244C213.365 8.07244 214.129 7.31646 214.129 6.3769C214.129 5.40493 213.371 4.64355 212.428 4.64355C211.454 4.64355 210.69 5.39953 210.69 6.3391V6.3769ZM230 25.2331V16.1128C230 13.1915 227.395 11.4635 224.758 11.4635C222.587 11.4635 221.141 11.8253 219.262 12.8351L219.912 14.347C221.32 13.6235 222.479 13.2293 224.071 13.2293C225.841 13.2293 227.504 14.455 227.504 16.2586V17.8083C226.058 17.8083 224.937 17.8083 223.199 17.8083C220.161 17.7705 217.773 19.6496 217.741 22.7113C217.67 25.5948 220.02 27.8736 222.874 27.9438C226.025 27.9816 228.484 26.745 230 25.2331ZM227.433 24.8713C226.962 25.3735 225.554 26.205 224.033 26.1672C221.937 26.1672 220.416 24.4339 220.416 22.6357C220.416 20.654 221.932 19.4985 223.957 19.4985C225.257 19.4607 226.594 19.4607 227.428 19.4607V24.8713H227.433Z" fill="#F2F2F2"/>
</svg>
